<svg width="1913" height="4724" viewBox="0 0 1913 4724" fill="none" xmlns="http://www.w3.org/2000/svg">
<rect y="11" width="1920" height="4712" fill="#080708"/>
<path d="M1795 4512.5C1795 4525.57 1792.43 4538.51 1787.43 4550.58C1782.43 4562.65 1775.1 4573.62 1765.86 4582.86C1756.62 4592.1 1745.65 4599.43 1733.58 4604.43C1721.51 4609.43 1708.57 4612 1695.5 4612V4608C1708.04 4608 1720.46 4605.53 1732.05 4600.73C1743.63 4595.93 1754.16 4588.9 1763.03 4580.03C1771.9 4571.16 1778.93 4560.63 1783.73 4549.05C1788.53 4537.46 1791 4525.04 1791 4512.5H1795Z" fill="#5E5E5E"/>
<path d="M1776 4513C1776 4523.51 1773.93 4533.91 1769.91 4543.61C1765.89 4553.32 1760 4562.14 1752.57 4569.57C1745.14 4577 1736.32 4582.89 1726.61 4586.91C1716.91 4590.93 1706.51 4593 1696 4593V4589.01C1705.98 4589.01 1715.87 4587.05 1725.09 4583.23C1734.31 4579.41 1742.69 4573.81 1749.75 4566.75C1756.81 4559.69 1762.41 4551.31 1766.23 4542.09C1770.05 4532.87 1772.01 4522.98 1772.01 4513H1776Z" fill="#5E5E5E"/>
<path d="M1757 4513C1757 4521.01 1755.42 4528.94 1752.36 4536.34C1749.29 4543.74 1744.8 4550.47 1739.13 4556.13C1733.47 4561.8 1726.74 4566.29 1719.34 4569.36C1711.94 4572.42 1704.01 4574 1696 4574V4569.99C1703.48 4569.99 1710.9 4568.52 1717.81 4565.66C1724.73 4562.79 1731.01 4558.59 1736.3 4553.3C1741.59 4548.01 1745.79 4541.73 1748.66 4534.81C1751.52 4527.9 1752.99 4520.48 1752.99 4513H1757Z" fill="#5E5E5E"/>
<path d="M1738 4513C1738 4518.52 1736.91 4523.98 1734.8 4529.07C1732.69 4534.17 1729.6 4538.8 1725.7 4542.7C1721.8 4546.6 1717.17 4549.69 1712.07 4551.8C1706.98 4553.91 1701.52 4555 1696 4555V4551C1700.99 4551 1705.93 4550.02 1710.54 4548.11C1715.15 4546.2 1719.34 4543.4 1722.87 4539.87C1726.4 4536.34 1729.2 4532.15 1731.11 4527.54C1733.02 4522.93 1734 4517.99 1734 4513H1738Z" fill="#5E5E5E"/>
<path d="M1719 4512.5C1719 4515.59 1718.39 4518.64 1717.21 4521.49C1716.03 4524.34 1714.3 4526.93 1712.12 4529.12C1709.93 4531.3 1707.34 4533.03 1704.49 4534.21C1701.64 4535.39 1698.59 4536 1695.5 4536L1695.5 4532.01C1698.06 4532.01 1700.6 4531.51 1702.97 4530.53C1705.33 4529.55 1707.49 4528.11 1709.3 4526.3C1711.11 4524.49 1712.55 4522.33 1713.53 4519.97C1714.51 4517.6 1715.01 4515.06 1715.01 4512.5H1719Z" fill="#5E5E5E"/>
<path d="M1700 4513C1700 4513.53 1699.9 4514.05 1699.7 4514.53C1699.49 4515.02 1699.2 4515.46 1698.83 4515.83C1698.46 4516.2 1698.02 4516.49 1697.53 4516.7C1697.05 4516.9 1696.53 4517 1696 4517L1696 4513H1700Z" fill="#5E5E5E"/>
<rect x="1003" y="4611.17" width="112.831" height="3.99994" transform="rotate(90 1003 4611.17)" fill="#5E5E5E"/>
<rect x="984" y="4611.17" width="112.831" height="3.99994" transform="rotate(90 984 4611.17)" fill="#5E5E5E"/>
<rect x="946" y="4611.17" width="112.831" height="3.99994" transform="rotate(90 946 4611.17)" fill="#5E5E5E"/>
<rect x="965" y="4611" width="113" height="3.99999" transform="rotate(90 965 4611)" fill="#5E5E5E"/>
<rect x="927" y="4611.17" width="112.831" height="3.99994" transform="rotate(90 927 4611.17)" fill="#5E5E5E"/>
<rect x="908" y="4611.17" width="112.831" height="3.99994" transform="rotate(90 908 4611.17)" fill="#5E5E5E"/>
<rect x="1002.04" y="4513" width="693.959" height="3.99994" fill="#5E5E5E"/>
<rect x="1002.04" y="4532" width="693.959" height="3.99994" fill="#5E5E5E"/>
<rect x="1002.04" y="4570" width="693.959" height="3.99994" fill="#5E5E5E"/>
<rect x="1001" y="4551" width="695" height="3.99999" fill="#5E5E5E"/>
<rect x="1002.04" y="4589" width="693.959" height="3.99994" fill="#5E5E5E"/>
<rect x="1002.04" y="4608" width="693.959" height="3.99994" fill="#5E5E5E"/>
<path d="M904 4612.5C904 4599.43 906.574 4586.49 911.574 4574.42C916.574 4562.35 923.903 4551.38 933.143 4542.14C942.382 4532.9 953.351 4525.57 965.423 4520.57C977.495 4515.57 990.433 4513 1003.5 4513L1003.5 4517C990.958 4517 978.539 4519.47 966.952 4524.27C955.365 4529.07 944.837 4536.1 935.968 4544.97C927.1 4553.84 920.065 4564.37 915.266 4575.95C910.466 4587.54 907.996 4599.96 907.996 4612.5L904 4612.5Z" fill="#5E5E5E"/>
<path d="M923 4612C923 4601.49 925.069 4591.09 929.09 4581.39C933.11 4571.68 939.003 4562.86 946.431 4555.43C953.86 4548 962.679 4542.11 972.385 4538.09C982.091 4534.07 992.494 4532 1003 4532L1003 4535.99C993.018 4535.99 983.133 4537.95 973.911 4541.77C964.689 4545.59 956.309 4551.19 949.251 4558.25C942.192 4565.31 936.593 4573.69 932.773 4582.91C928.953 4592.13 926.987 4602.02 926.987 4612L923 4612Z" fill="#5E5E5E"/>
<path d="M942 4612C942 4603.99 943.578 4596.06 946.643 4588.66C949.709 4581.26 954.202 4574.53 959.866 4568.87C965.531 4563.2 972.255 4558.71 979.656 4555.64C987.057 4552.58 994.989 4551 1003 4551L1003 4555.01C995.515 4555.01 988.104 4556.48 981.189 4559.34C974.275 4562.21 967.992 4566.41 962.699 4571.7C957.407 4576.99 953.209 4583.27 950.344 4590.19C947.48 4597.1 946.006 4604.52 946.006 4612L942 4612Z" fill="#5E5E5E"/>
<path d="M961 4612C961 4606.48 962.086 4601.02 964.197 4595.93C966.308 4590.83 969.401 4586.2 973.302 4582.3C977.202 4578.4 981.832 4575.31 986.927 4573.2C992.023 4571.09 997.484 4570 1003 4570L1003 4574C998.01 4574 993.069 4574.98 988.459 4576.89C983.848 4578.8 979.66 4581.6 976.131 4585.13C972.603 4588.66 969.804 4592.85 967.894 4597.46C965.984 4602.07 965.002 4607.01 965.002 4612L961 4612Z" fill="#5E5E5E"/>
<path d="M980 4612.5C980 4609.41 980.608 4606.36 981.789 4603.51C982.97 4600.66 984.701 4598.07 986.883 4595.88C989.065 4593.7 991.656 4591.97 994.507 4590.79C997.358 4589.61 1000.41 4589 1003.5 4589L1003.5 4592.99C1000.94 4592.99 998.4 4593.49 996.033 4594.47C993.665 4595.45 991.514 4596.89 989.702 4598.7C987.89 4600.51 986.453 4602.67 985.472 4605.03C984.492 4607.4 983.987 4609.94 983.987 4612.5L980 4612.5Z" fill="#5E5E5E"/>
<path d="M999 4612C999 4611.47 999.103 4610.95 999.304 4610.47C999.506 4609.98 999.8 4609.54 1000.17 4609.17C1000.54 4608.8 1000.98 4608.51 1001.47 4608.3C1001.95 4608.1 1002.47 4608 1003 4608L1003 4612L999 4612Z" fill="#5E5E5E"/>
<path d="M196.5 3109C183.433 3109 170.495 3106.43 158.423 3101.43C146.351 3096.43 135.382 3089.1 126.143 3079.86C116.903 3070.62 109.574 3059.65 104.574 3047.58C99.5736 3035.51 97 3022.57 97 3009.5L100.996 3009.5C100.996 3022.04 103.466 3034.46 108.266 3046.05C113.065 3057.63 120.1 3068.16 128.968 3077.03C137.837 3085.9 148.365 3092.93 159.952 3097.73C171.539 3102.53 183.958 3105 196.5 3105L196.5 3109Z" fill="#5E5E5E"/>
<path d="M196 3090C185.494 3090 175.091 3087.93 165.385 3083.91C155.679 3079.89 146.86 3074 139.431 3066.57C132.003 3059.14 126.11 3050.32 122.09 3040.61C118.069 3030.91 116 3020.51 116 3010L119.987 3010C119.987 3019.98 121.953 3029.87 125.773 3039.09C129.593 3048.31 135.192 3056.69 142.251 3063.75C149.309 3070.81 157.689 3076.41 166.911 3080.23C176.133 3084.05 186.018 3086.01 196 3086.01L196 3090Z" fill="#5E5E5E"/>
<path d="M196 3071C187.989 3071 180.057 3069.42 172.656 3066.36C165.255 3063.29 158.531 3058.8 152.866 3053.13C147.202 3047.47 142.709 3040.74 139.643 3033.34C136.578 3025.94 135 3018.01 135 3010L139.006 3010C139.006 3017.48 140.48 3024.9 143.344 3031.81C146.209 3038.73 150.407 3045.01 155.699 3050.3C160.992 3055.59 167.274 3059.79 174.189 3062.66C181.104 3065.52 188.515 3066.99 196 3066.99L196 3071Z" fill="#5E5E5E"/>
<path d="M196 3052C190.484 3052 185.023 3050.91 179.927 3048.8C174.832 3046.69 170.202 3043.6 166.302 3039.7C162.401 3035.8 159.308 3031.17 157.197 3026.07C155.086 3020.98 154 3015.52 154 3010L158.002 3010C158.002 3014.99 158.984 3019.93 160.894 3024.54C162.804 3029.15 165.603 3033.34 169.131 3036.87C172.66 3040.4 176.848 3043.2 181.459 3045.11C186.069 3047.02 191.01 3048 196 3048L196 3052Z" fill="#5E5E5E"/>
<path d="M196.5 3033C193.414 3033 190.358 3032.39 187.507 3031.21C184.656 3030.03 182.065 3028.3 179.883 3026.12C177.701 3023.93 175.97 3021.34 174.789 3018.49C173.608 3015.64 173 3012.59 173 3009.5L176.987 3009.5C176.987 3012.06 177.492 3014.6 178.472 3016.97C179.453 3019.33 180.89 3021.49 182.702 3023.3C184.514 3025.11 186.665 3026.55 189.033 3027.53C191.4 3028.51 193.937 3029.01 196.5 3029.01L196.5 3033Z" fill="#5E5E5E"/>
<path d="M196 3014C195.475 3014 194.955 3013.9 194.469 3013.7C193.984 3013.49 193.543 3013.2 193.172 3012.83C192.8 3012.46 192.506 3012.02 192.304 3011.53C192.103 3011.05 192 3010.53 192 3010L196 3010L196 3014Z" fill="#5E5E5E"/>
<path d="M1002.5 199C989.433 199 976.495 196.426 964.423 191.426C952.351 186.426 941.382 179.097 932.143 169.857C922.903 160.618 915.574 149.649 910.574 137.577C905.574 125.505 903 112.567 903 99.5L906.996 99.5C906.996 112.042 909.466 124.461 914.266 136.048C919.065 147.635 926.1 158.163 934.968 167.032C943.837 175.9 954.365 182.935 965.952 187.734C977.539 192.534 989.958 195.004 1002.5 195.004L1002.5 199Z" fill="#5E5E5E"/>
<path d="M1002 180C991.494 180 981.091 177.931 971.385 173.91C961.679 169.89 952.86 163.997 945.431 156.569C938.003 149.14 932.11 140.321 928.09 130.615C924.069 120.909 922 110.506 922 100L925.987 100C925.987 109.982 927.953 119.867 931.773 129.089C935.593 138.311 941.192 146.691 948.251 153.749C955.309 160.808 963.689 166.407 972.911 170.227C982.133 174.047 992.018 176.013 1002 176.013L1002 180Z" fill="#5E5E5E"/>
<path d="M1002 161C993.989 161 986.057 159.422 978.656 156.357C971.255 153.291 964.531 148.798 958.866 143.134C953.202 137.469 948.709 130.745 945.643 123.344C942.578 115.943 941 108.011 941 100L945.006 100C945.006 107.485 946.48 114.896 949.344 121.811C952.209 128.725 956.407 135.008 961.699 140.301C966.992 145.593 973.274 149.791 980.189 152.656C987.104 155.52 994.515 156.994 1002 156.994L1002 161Z" fill="#5E5E5E"/>
<path d="M1002 142C996.484 142 991.023 140.914 985.927 138.803C980.832 136.692 976.202 133.599 972.302 129.698C968.401 125.798 965.308 121.168 963.197 116.073C961.086 110.977 960 105.516 960 100L964.002 100C964.002 104.99 964.984 109.931 966.894 114.541C968.804 119.152 971.603 123.34 975.131 126.869C978.66 130.397 982.848 133.196 987.459 135.106C992.069 137.016 997.01 137.998 1002 137.998L1002 142Z" fill="#5E5E5E"/>
<path d="M1002.5 123C999.414 123 996.358 122.392 993.507 121.211C990.656 120.03 988.065 118.299 985.883 116.117C983.701 113.935 981.97 111.344 980.789 108.493C979.608 105.642 979 102.586 979 99.5L982.987 99.5C982.987 102.063 983.492 104.6 984.472 106.967C985.453 109.335 986.89 111.486 988.702 113.298C990.514 115.11 992.665 116.547 995.033 117.528C997.4 118.508 999.937 119.013 1002.5 119.013L1002.5 123Z" fill="#5E5E5E"/>
<path d="M1002 104C1001.47 104 1000.95 103.897 1000.47 103.696C999.984 103.494 999.543 103.2 999.172 102.828C998.8 102.457 998.506 102.016 998.304 101.531C998.103 101.045 998 100.525 998 100L1002 100L1002 104Z" fill="#5E5E5E"/>
<path d="M1794 1531.5C1794 1544.57 1791.43 1557.51 1786.43 1569.58C1781.43 1581.65 1774.1 1592.62 1764.86 1601.86C1755.62 1611.1 1744.65 1618.43 1732.58 1623.43C1720.51 1628.43 1707.57 1631 1694.5 1631V1627C1707.04 1627 1719.46 1624.53 1731.05 1619.73C1742.63 1614.93 1753.16 1607.9 1762.03 1599.03C1770.9 1590.16 1777.93 1579.63 1782.73 1568.05C1787.53 1556.46 1790 1544.04 1790 1531.5H1794Z" fill="#5E5E5E"/>
<path d="M1775 1532C1775 1542.51 1772.93 1552.91 1768.91 1562.61C1764.89 1572.32 1759 1581.14 1751.57 1588.57C1744.14 1596 1735.32 1601.89 1725.61 1605.91C1715.91 1609.93 1705.51 1612 1695 1612V1608.01C1704.98 1608.01 1714.87 1606.05 1724.09 1602.23C1733.31 1598.41 1741.69 1592.81 1748.75 1585.75C1755.81 1578.69 1761.41 1570.31 1765.23 1561.09C1769.05 1551.87 1771.01 1541.98 1771.01 1532H1775Z" fill="#5E5E5E"/>
<path d="M1756 1532C1756 1540.01 1754.42 1547.94 1751.36 1555.34C1748.29 1562.74 1743.8 1569.47 1738.13 1575.13C1732.47 1580.8 1725.74 1585.29 1718.34 1588.36C1710.94 1591.42 1703.01 1593 1695 1593V1588.99C1702.48 1588.99 1709.9 1587.52 1716.81 1584.66C1723.73 1581.79 1730.01 1577.59 1735.3 1572.3C1740.59 1567.01 1744.79 1560.73 1747.66 1553.81C1750.52 1546.9 1751.99 1539.48 1751.99 1532H1756Z" fill="#5E5E5E"/>
<path d="M1737 1532C1737 1537.52 1735.91 1542.98 1733.8 1548.07C1731.69 1553.17 1728.6 1557.8 1724.7 1561.7C1720.8 1565.6 1716.17 1568.69 1711.07 1570.8C1705.98 1572.91 1700.52 1574 1695 1574V1570C1699.99 1570 1704.93 1569.02 1709.54 1567.11C1714.15 1565.2 1718.34 1562.4 1721.87 1558.87C1725.4 1555.34 1728.2 1551.15 1730.11 1546.54C1732.02 1541.93 1733 1536.99 1733 1532H1737Z" fill="#5E5E5E"/>
<path d="M1718 1531.5C1718 1534.59 1717.39 1537.64 1716.21 1540.49C1715.03 1543.34 1713.3 1545.93 1711.12 1548.12C1708.93 1550.3 1706.34 1552.03 1703.49 1553.21C1700.64 1554.39 1697.59 1555 1694.5 1555L1694.5 1551.01C1697.06 1551.01 1699.6 1550.51 1701.97 1549.53C1704.33 1548.55 1706.49 1547.11 1708.3 1545.3C1710.11 1543.49 1711.55 1541.33 1712.53 1538.97C1713.51 1536.6 1714.01 1534.06 1714.01 1531.5H1718Z" fill="#5E5E5E"/>
<path d="M1699 1532C1699 1532.53 1698.9 1533.05 1698.7 1533.53C1698.49 1534.02 1698.2 1534.46 1697.83 1534.83C1697.46 1535.2 1697.02 1535.49 1696.53 1535.7C1696.05 1535.9 1695.53 1536 1695 1536L1695 1532H1699Z" fill="#5E5E5E"/>
<rect x="1794" y="199" width="1333" height="3.99994" transform="rotate(90 1794 199)" fill="#5E5E5E"/>
<rect x="1775" y="199" width="1333" height="3.99994" transform="rotate(90 1775 199)" fill="#5E5E5E"/>
<rect x="1737" y="199" width="1333" height="3.99994" transform="rotate(90 1737 199)" fill="#5E5E5E"/>
<rect x="1756" y="197" width="1335" height="3.99999" transform="rotate(90 1756 197)" fill="#5E5E5E"/>
<rect x="1718" y="199" width="1333" height="3.99994" transform="rotate(90 1718 199)" fill="#5E5E5E"/>
<rect x="1699" y="199" width="1333" height="3.99994" transform="rotate(90 1699 199)" fill="#5E5E5E"/>
<rect x="196" y="1631.07" width="1378.93" height="3.99994" transform="rotate(90 196 1631.07)" fill="#5E5E5E"/>
<rect x="177" y="1631.07" width="1378.93" height="3.99994" transform="rotate(90 177 1631.07)" fill="#5E5E5E"/>
<rect x="139" y="1631.07" width="1378.93" height="3.99994" transform="rotate(90 139 1631.07)" fill="#5E5E5E"/>
<rect x="158" y="1629" width="1381" height="3.99999" transform="rotate(90 158 1629)" fill="#5E5E5E"/>
<rect x="120" y="1631.07" width="1378.93" height="3.99994" transform="rotate(90 120 1631.07)" fill="#5E5E5E"/>
<rect x="101" y="1631.07" width="1378.93" height="3.99994" transform="rotate(90 101 1631.07)" fill="#5E5E5E"/>
<rect x="195.25" y="1532" width="1499.75" height="3.99994" fill="#5E5E5E"/>
<rect x="195.25" y="1551" width="1499.75" height="3.99994" fill="#5E5E5E"/>
<rect x="195.25" y="1589" width="1499.75" height="3.99994" fill="#5E5E5E"/>
<rect x="193" y="1570" width="1502" height="3.99999" fill="#5E5E5E"/>
<rect x="195.25" y="1608" width="1499.75" height="3.99994" fill="#5E5E5E"/>
<rect x="195.25" y="1627" width="1499.75" height="3.99994" fill="#5E5E5E"/>
<rect x="196" y="3010" width="1500" height="3.99974" fill="#5E5E5E"/>
<rect x="196.25" y="3029" width="1499.75" height="3.99994" fill="#5E5E5E"/>
<rect x="196" y="3067" width="1500" height="3.99974" fill="#5E5E5E"/>
<rect x="194" y="3048" width="1502" height="3.99999" fill="#5E5E5E"/>
<rect x="195" y="3086" width="1501" height="3.99974" fill="#5E5E5E"/>
<rect x="196.25" y="3105" width="1499.75" height="3.99994" fill="#5E5E5E"/>
<path d="M1694.5 100C1707.57 100 1720.51 102.574 1732.58 107.574C1744.65 112.574 1755.62 119.903 1764.86 129.143C1774.1 138.382 1781.43 149.351 1786.43 161.423C1791.43 173.495 1794 186.433 1794 199.5L1790 199.5C1790 186.958 1787.53 174.539 1782.73 162.952C1777.93 151.365 1770.9 140.837 1762.03 131.968C1753.16 123.1 1742.63 116.065 1731.05 111.266C1719.46 106.466 1707.04 103.996 1694.5 103.996L1694.5 100Z" fill="#5E5E5E"/>
<path d="M1695 119C1705.51 119 1715.91 121.069 1725.61 125.09C1735.32 129.11 1744.14 135.003 1751.57 142.431C1759 149.86 1764.89 158.679 1768.91 168.385C1772.93 178.091 1775 188.494 1775 199L1771.01 199C1771.01 189.018 1769.05 179.133 1765.23 169.911C1761.41 160.689 1755.81 152.309 1748.75 145.251C1741.69 138.192 1733.31 132.593 1724.09 128.773C1714.87 124.953 1704.98 122.987 1695 122.987L1695 119Z" fill="#5E5E5E"/>
<path d="M1695 138C1703.01 138 1710.94 139.578 1718.34 142.643C1725.74 145.709 1732.47 150.202 1738.13 155.866C1743.8 161.531 1748.29 168.255 1751.36 175.656C1754.42 183.057 1756 190.989 1756 199L1751.99 199C1751.99 191.515 1750.52 184.104 1747.66 177.189C1744.79 170.274 1740.59 163.992 1735.3 158.699C1730.01 153.407 1723.73 149.209 1716.81 146.344C1709.9 143.48 1702.48 142.006 1695 142.006L1695 138Z" fill="#5E5E5E"/>
<path d="M1695 157C1700.52 157 1705.98 158.086 1711.07 160.197C1716.17 162.308 1720.8 165.401 1724.7 169.302C1728.6 173.202 1731.69 177.832 1733.8 182.927C1735.91 188.023 1737 193.484 1737 199L1733 199C1733 194.01 1732.02 189.069 1730.11 184.459C1728.2 179.848 1725.4 175.66 1721.87 172.131C1718.34 168.603 1714.15 165.804 1709.54 163.894C1704.93 161.984 1699.99 161.002 1695 161.002L1695 157Z" fill="#5E5E5E"/>
<path d="M1694.5 176C1697.59 176 1700.64 176.608 1703.49 177.789C1706.34 178.97 1708.93 180.701 1711.12 182.883C1713.3 185.065 1715.03 187.656 1716.21 190.507C1717.39 193.358 1718 196.414 1718 199.5L1714.01 199.5C1714.01 196.937 1713.51 194.4 1712.53 192.033C1711.55 189.665 1710.11 187.514 1708.3 185.702C1706.49 183.89 1704.33 182.453 1701.97 181.472C1699.6 180.492 1697.06 179.987 1694.5 179.987L1694.5 176Z" fill="#5E5E5E"/>
<path d="M1695 195C1695.53 195 1696.05 195.103 1696.53 195.304C1697.02 195.506 1697.46 195.8 1697.83 196.172C1698.2 196.543 1698.49 196.984 1698.7 197.469C1698.9 197.955 1699 198.475 1699 199L1695 199L1695 195Z" fill="#5E5E5E"/>
<rect x="1795" y="3109.11" width="1403.89" height="3.99994" transform="rotate(90 1795 3109.11)" fill="#5E5E5E"/>
<rect x="1776" y="3109.11" width="1403.89" height="3.99994" transform="rotate(90 1776 3109.11)" fill="#5E5E5E"/>
<rect x="1738" y="3109.11" width="1403.89" height="3.99994" transform="rotate(90 1738 3109.11)" fill="#5E5E5E"/>
<rect x="1757" y="3107" width="1406" height="3.99999" transform="rotate(90 1757 3107)" fill="#5E5E5E"/>
<rect x="1719" y="3109.11" width="1403.89" height="3.99994" transform="rotate(90 1719 3109.11)" fill="#5E5E5E"/>
<rect x="1700" y="3109.11" width="1403.89" height="3.99994" transform="rotate(90 1700 3109.11)" fill="#5E5E5E"/>
<path d="M1695.5 3010C1708.57 3010 1721.51 3012.57 1733.58 3017.57C1745.65 3022.57 1756.62 3029.9 1765.86 3039.14C1775.1 3048.38 1782.43 3059.35 1787.43 3071.42C1792.43 3083.49 1795 3096.43 1795 3109.5L1791 3109.5C1791 3096.96 1788.53 3084.54 1783.73 3072.95C1778.93 3061.37 1771.9 3050.84 1763.03 3041.97C1754.16 3033.1 1743.63 3026.07 1732.05 3021.27C1720.46 3016.47 1708.04 3014 1695.5 3014L1695.5 3010Z" fill="#5E5E5E"/>
<path d="M1696 3029C1706.51 3029 1716.91 3031.07 1726.61 3035.09C1736.32 3039.11 1745.14 3045 1752.57 3052.43C1760 3059.86 1765.89 3068.68 1769.91 3078.39C1773.93 3088.09 1776 3098.49 1776 3109L1772.01 3109C1772.01 3099.02 1770.05 3089.13 1766.23 3079.91C1762.41 3070.69 1756.81 3062.31 1749.75 3055.25C1742.69 3048.19 1734.31 3042.59 1725.09 3038.77C1715.87 3034.95 1705.98 3032.99 1696 3032.99L1696 3029Z" fill="#5E5E5E"/>
<path d="M1696 3048C1704.01 3048 1711.94 3049.58 1719.34 3052.64C1726.74 3055.71 1733.47 3060.2 1739.13 3065.87C1744.8 3071.53 1749.29 3078.26 1752.36 3085.66C1755.42 3093.06 1757 3100.99 1757 3109L1752.99 3109C1752.99 3101.52 1751.52 3094.1 1748.66 3087.19C1745.79 3080.27 1741.59 3073.99 1736.3 3068.7C1731.01 3063.41 1724.73 3059.21 1717.81 3056.34C1710.9 3053.48 1703.48 3052.01 1696 3052.01L1696 3048Z" fill="#5E5E5E"/>
<path d="M1696 3067C1701.52 3067 1706.98 3068.09 1712.07 3070.2C1717.17 3072.31 1721.8 3075.4 1725.7 3079.3C1729.6 3083.2 1732.69 3087.83 1734.8 3092.93C1736.91 3098.02 1738 3103.48 1738 3109L1734 3109C1734 3104.01 1733.02 3099.07 1731.11 3094.46C1729.2 3089.85 1726.4 3085.66 1722.87 3082.13C1719.34 3078.6 1715.15 3075.8 1710.54 3073.89C1705.93 3071.98 1700.99 3071 1696 3071L1696 3067Z" fill="#5E5E5E"/>
<path d="M1695.5 3086C1698.59 3086 1701.64 3086.61 1704.49 3087.79C1707.34 3088.97 1709.93 3090.7 1712.12 3092.88C1714.3 3095.07 1716.03 3097.66 1717.21 3100.51C1718.39 3103.36 1719 3106.41 1719 3109.5L1715.01 3109.5C1715.01 3106.94 1714.51 3104.4 1713.53 3102.03C1712.55 3099.67 1711.11 3097.51 1709.3 3095.7C1707.49 3093.89 1705.33 3092.45 1702.97 3091.47C1700.6 3090.49 1698.06 3089.99 1695.5 3089.99L1695.5 3086Z" fill="#5E5E5E"/>
<path d="M1696 3105C1696.53 3105 1697.05 3105.1 1697.53 3105.3C1698.02 3105.51 1698.46 3105.8 1698.83 3106.17C1699.2 3106.54 1699.49 3106.98 1699.7 3107.47C1699.9 3107.95 1700 3108.47 1700 3109L1696 3109L1696 3105Z" fill="#5E5E5E"/>
<path d="M97 1631.5C97 1618.43 99.5736 1605.49 104.574 1593.42C109.574 1581.35 116.903 1570.38 126.143 1561.14C135.382 1551.9 146.351 1544.57 158.423 1539.57C170.495 1534.57 183.433 1532 196.5 1532L196.5 1536C183.958 1536 171.539 1538.47 159.952 1543.27C148.365 1548.07 137.837 1555.1 128.968 1563.97C120.1 1572.84 113.065 1583.37 108.266 1594.95C103.466 1606.54 100.996 1618.96 100.996 1631.5L97 1631.5Z" fill="#5E5E5E"/>
<path d="M116 1631C116 1620.49 118.069 1610.09 122.09 1600.39C126.11 1590.68 132.003 1581.86 139.431 1574.43C146.86 1567 155.679 1561.11 165.385 1557.09C175.091 1553.07 185.494 1551 196 1551L196 1554.99C186.018 1554.99 176.133 1556.95 166.911 1560.77C157.689 1564.59 149.309 1570.19 142.251 1577.25C135.192 1584.31 129.593 1592.69 125.773 1601.91C121.953 1611.13 119.987 1621.02 119.987 1631L116 1631Z" fill="#5E5E5E"/>
<path d="M135 1631C135 1622.99 136.578 1615.06 139.643 1607.66C142.709 1600.26 147.202 1593.53 152.866 1587.87C158.531 1582.2 165.255 1577.71 172.656 1574.64C180.057 1571.58 187.989 1570 196 1570L196 1574.01C188.515 1574.01 181.104 1575.48 174.189 1578.34C167.275 1581.21 160.992 1585.41 155.699 1590.7C150.407 1595.99 146.209 1602.27 143.344 1609.19C140.48 1616.1 139.006 1623.52 139.006 1631L135 1631Z" fill="#5E5E5E"/>
<path d="M154 1631C154 1625.48 155.086 1620.02 157.197 1614.93C159.308 1609.83 162.401 1605.2 166.302 1601.3C170.202 1597.4 174.832 1594.31 179.927 1592.2C185.023 1590.09 190.484 1589 196 1589L196 1593C191.01 1593 186.069 1593.98 181.459 1595.89C176.848 1597.8 172.66 1600.6 169.131 1604.13C165.603 1607.66 162.804 1611.85 160.894 1616.46C158.984 1621.07 158.002 1626.01 158.002 1631L154 1631Z" fill="#5E5E5E"/>
<path d="M173 1631.5C173 1628.41 173.608 1625.36 174.789 1622.51C175.97 1619.66 177.701 1617.07 179.883 1614.88C182.065 1612.7 184.656 1610.97 187.507 1609.79C190.358 1608.61 193.414 1608 196.5 1608L196.5 1611.99C193.937 1611.99 191.4 1612.49 189.033 1613.47C186.665 1614.45 184.514 1615.89 182.702 1617.7C180.89 1619.51 179.453 1621.67 178.472 1624.03C177.492 1626.4 176.987 1628.94 176.987 1631.5L173 1631.5Z" fill="#5E5E5E"/>
<path d="M192 1631C192 1630.47 192.103 1629.95 192.304 1629.47C192.506 1628.98 192.8 1628.54 193.172 1628.17C193.543 1627.8 193.984 1627.51 194.469 1627.3C194.955 1627.1 195.475 1627 196 1627L196 1631L192 1631Z" fill="#5E5E5E"/>
<rect x="1002" y="11" width="89" height="3.99999" transform="rotate(90 1002 11)" fill="#5E5E5E"/>
<rect x="983" y="11" width="89" height="3.99999" transform="rotate(90 983 11)" fill="#5E5E5E"/>
<rect x="945" y="11" width="89" height="3.99999" transform="rotate(90 945 11)" fill="#5E5E5E"/>
<rect x="964" y="11" width="89" height="3.99999" transform="rotate(90 964 11)" fill="#5E5E5E"/>
<rect x="926" y="11" width="89" height="3.99999" transform="rotate(90 926 11)" fill="#5E5E5E"/>
<rect x="907" y="11" width="89" height="3.99999" transform="rotate(90 907 11)" fill="#5E5E5E"/>
<rect x="1002" y="100" width="693" height="3.99999" fill="#5E5E5E"/>
<rect x="1002" y="119" width="693" height="3.99999" fill="#5E5E5E"/>
<rect x="1002" y="157" width="693" height="3.99999" fill="#5E5E5E"/>
<rect x="1002" y="138" width="693" height="3.99999" fill="#5E5E5E"/>
<rect x="1002" y="176" width="693" height="3.99999" fill="#5E5E5E"/>
<rect x="1002" y="195" width="693" height="3.99999" fill="#5E5E5E"/>
</svg>
