<svg width="1920" height="4712" viewBox="0 0 1920 4712" fill="none" xmlns="http://www.w3.org/2000/svg">
<rect width="1920" height="4712" fill="#080708"/>
<path d="M1802 4500.5C1802 4513.57 1799.43 4526.51 1794.43 4538.58C1789.43 4550.65 1782.1 4561.62 1772.86 4570.86C1763.62 4580.1 1752.65 4587.43 1740.58 4592.43C1728.51 4597.43 1715.57 4600 1702.5 4600V4596C1715.04 4596 1727.46 4593.53 1739.05 4588.73C1750.63 4583.93 1761.16 4576.9 1770.03 4568.03C1778.9 4559.16 1785.93 4548.63 1790.73 4537.05C1795.53 4525.46 1798 4513.04 1798 4500.5H1802Z" fill="#5C5C5C"/>
<path d="M1783 4501C1783 4511.51 1780.93 4521.91 1776.91 4531.61C1772.89 4541.32 1767 4550.14 1759.57 4557.57C1752.14 4565 1743.32 4570.89 1733.61 4574.91C1723.91 4578.93 1713.51 4581 1703 4581V4577.01C1712.98 4577.01 1722.87 4575.05 1732.09 4571.23C1741.31 4567.41 1749.69 4561.81 1756.75 4554.75C1763.81 4547.69 1769.41 4539.31 1773.23 4530.09C1777.05 4520.87 1779.01 4510.98 1779.01 4501H1783Z" fill="#5C5C5C"/>
<path d="M1764 4501C1764 4509.01 1762.42 4516.94 1759.36 4524.34C1756.29 4531.74 1751.8 4538.47 1746.13 4544.13C1740.47 4549.8 1733.74 4554.29 1726.34 4557.36C1718.94 4560.42 1711.01 4562 1703 4562V4557.99C1710.48 4557.99 1717.9 4556.52 1724.81 4553.66C1731.73 4550.79 1738.01 4546.59 1743.3 4541.3C1748.59 4536.01 1752.79 4529.73 1755.66 4522.81C1758.52 4515.9 1759.99 4508.48 1759.99 4501H1764Z" fill="#5C5C5C"/>
<path d="M1745 4501C1745 4506.52 1743.91 4511.98 1741.8 4517.07C1739.69 4522.17 1736.6 4526.8 1732.7 4530.7C1728.8 4534.6 1724.17 4537.69 1719.07 4539.8C1713.98 4541.91 1708.52 4543 1703 4543V4539C1707.99 4539 1712.93 4538.02 1717.54 4536.11C1722.15 4534.2 1726.34 4531.4 1729.87 4527.87C1733.4 4524.34 1736.2 4520.15 1738.11 4515.54C1740.02 4510.93 1741 4505.99 1741 4501H1745Z" fill="#5C5C5C"/>
<path d="M1726 4500.5C1726 4503.59 1725.39 4506.64 1724.21 4509.49C1723.03 4512.34 1721.3 4514.93 1719.12 4517.12C1716.93 4519.3 1714.34 4521.03 1711.49 4522.21C1708.64 4523.39 1705.59 4524 1702.5 4524L1702.5 4520.01C1705.06 4520.01 1707.6 4519.51 1709.97 4518.53C1712.33 4517.55 1714.49 4516.11 1716.3 4514.3C1718.11 4512.49 1719.55 4510.33 1720.53 4507.97C1721.51 4505.6 1722.01 4503.06 1722.01 4500.5H1726Z" fill="#5C5C5C"/>
<path d="M1707 4501C1707 4501.53 1706.9 4502.05 1706.7 4502.53C1706.49 4503.02 1706.2 4503.46 1705.83 4503.83C1705.46 4504.2 1705.02 4504.49 1704.53 4504.7C1704.05 4504.9 1703.53 4505 1703 4505L1703 4501H1707Z" fill="#5C5C5C"/>
<rect x="1010" y="4599.17" width="112.831" height="3.99994" transform="rotate(90 1010 4599.17)" fill="#5C5C5C"/>
<rect x="991" y="4599.17" width="112.831" height="3.99994" transform="rotate(90 991 4599.17)" fill="#5C5C5C"/>
<rect x="953" y="4599.17" width="112.831" height="3.99994" transform="rotate(90 953 4599.17)" fill="#5C5C5C"/>
<rect x="972" y="4599" width="113" height="3.99999" transform="rotate(90 972 4599)" fill="#5C5C5C"/>
<rect x="934" y="4599.17" width="112.831" height="3.99994" transform="rotate(90 934 4599.17)" fill="#5C5C5C"/>
<rect x="915" y="4599.17" width="112.831" height="3.99994" transform="rotate(90 915 4599.17)" fill="#5C5C5C"/>
<rect x="1009.04" y="4501" width="693.959" height="3.99994" fill="#5C5C5C"/>
<rect x="1009.04" y="4520" width="693.959" height="3.99994" fill="#5C5C5C"/>
<rect x="1009.04" y="4558" width="693.959" height="3.99994" fill="#5C5C5C"/>
<rect x="1008" y="4539" width="695" height="3.99999" fill="#5C5C5C"/>
<rect x="1009.04" y="4577" width="693.959" height="3.99994" fill="#5C5C5C"/>
<rect x="1009.04" y="4596" width="693.959" height="3.99994" fill="#5C5C5C"/>
<path d="M911 4600.5C911 4587.43 913.574 4574.49 918.574 4562.42C923.574 4550.35 930.903 4539.38 940.143 4530.14C949.382 4520.9 960.351 4513.57 972.423 4508.57C984.495 4503.57 997.433 4501 1010.5 4501L1010.5 4505C997.958 4505 985.539 4507.47 973.952 4512.27C962.365 4517.07 951.837 4524.1 942.968 4532.97C934.1 4541.84 927.065 4552.37 922.266 4563.95C917.466 4575.54 914.996 4587.96 914.996 4600.5L911 4600.5Z" fill="#5C5C5C"/>
<path d="M930 4600C930 4589.49 932.069 4579.09 936.09 4569.39C940.11 4559.68 946.003 4550.86 953.431 4543.43C960.86 4536 969.679 4530.11 979.385 4526.09C989.091 4522.07 999.494 4520 1010 4520L1010 4523.99C1000.02 4523.99 990.133 4525.95 980.911 4529.77C971.689 4533.59 963.309 4539.19 956.251 4546.25C949.192 4553.31 943.593 4561.69 939.773 4570.91C935.953 4580.13 933.987 4590.02 933.987 4600L930 4600Z" fill="#5C5C5C"/>
<path d="M949 4600C949 4591.99 950.578 4584.06 953.643 4576.66C956.709 4569.26 961.202 4562.53 966.866 4556.87C972.531 4551.2 979.255 4546.71 986.656 4543.64C994.057 4540.58 1001.99 4539 1010 4539L1010 4543.01C1002.52 4543.01 995.104 4544.48 988.189 4547.34C981.275 4550.21 974.992 4554.41 969.699 4559.7C964.407 4564.99 960.209 4571.27 957.344 4578.19C954.48 4585.1 953.006 4592.52 953.006 4600L949 4600Z" fill="#5C5C5C"/>
<path d="M968 4600C968 4594.48 969.086 4589.02 971.197 4583.93C973.308 4578.83 976.401 4574.2 980.302 4570.3C984.202 4566.4 988.832 4563.31 993.927 4561.2C999.023 4559.09 1004.48 4558 1010 4558L1010 4562C1005.01 4562 1000.07 4562.98 995.459 4564.89C990.848 4566.8 986.66 4569.6 983.131 4573.13C979.603 4576.66 976.804 4580.85 974.894 4585.46C972.984 4590.07 972.002 4595.01 972.002 4600L968 4600Z" fill="#5C5C5C"/>
<path d="M987 4600.5C987 4597.41 987.608 4594.36 988.789 4591.51C989.97 4588.66 991.701 4586.07 993.883 4583.88C996.065 4581.7 998.656 4579.97 1001.51 4578.79C1004.36 4577.61 1007.41 4577 1010.5 4577L1010.5 4580.99C1007.94 4580.99 1005.4 4581.49 1003.03 4582.47C1000.67 4583.45 998.514 4584.89 996.702 4586.7C994.89 4588.51 993.453 4590.67 992.472 4593.03C991.492 4595.4 990.987 4597.94 990.987 4600.5L987 4600.5Z" fill="#5C5C5C"/>
<path d="M1006 4600C1006 4599.47 1006.1 4598.95 1006.3 4598.47C1006.51 4597.98 1006.8 4597.54 1007.17 4597.17C1007.54 4596.8 1007.98 4596.51 1008.47 4596.3C1008.95 4596.1 1009.47 4596 1010 4596L1010 4600L1006 4600Z" fill="#5C5C5C"/>
<path d="M203.5 3097C190.433 3097 177.495 3094.43 165.423 3089.43C153.351 3084.43 142.382 3077.1 133.143 3067.86C123.903 3058.62 116.574 3047.65 111.574 3035.58C106.574 3023.51 104 3010.57 104 2997.5L107.996 2997.5C107.996 3010.04 110.466 3022.46 115.266 3034.05C120.065 3045.63 127.1 3056.16 135.968 3065.03C144.837 3073.9 155.365 3080.93 166.952 3085.73C178.539 3090.53 190.958 3093 203.5 3093L203.5 3097Z" fill="#5C5C5C"/>
<path d="M203 3078C192.494 3078 182.091 3075.93 172.385 3071.91C162.679 3067.89 153.86 3062 146.431 3054.57C139.003 3047.14 133.11 3038.32 129.09 3028.61C125.069 3018.91 123 3008.51 123 2998L126.987 2998C126.987 3007.98 128.953 3017.87 132.773 3027.09C136.593 3036.31 142.192 3044.69 149.251 3051.75C156.309 3058.81 164.689 3064.41 173.911 3068.23C183.133 3072.05 193.018 3074.01 203 3074.01L203 3078Z" fill="#5C5C5C"/>
<path d="M203 3059C194.989 3059 187.057 3057.42 179.656 3054.36C172.255 3051.29 165.531 3046.8 159.866 3041.13C154.202 3035.47 149.709 3028.74 146.643 3021.34C143.578 3013.94 142 3006.01 142 2998L146.006 2998C146.006 3005.48 147.48 3012.9 150.344 3019.81C153.209 3026.73 157.407 3033.01 162.699 3038.3C167.992 3043.59 174.274 3047.79 181.189 3050.66C188.104 3053.52 195.515 3054.99 203 3054.99L203 3059Z" fill="#5C5C5C"/>
<path d="M203 3040C197.484 3040 192.023 3038.91 186.927 3036.8C181.832 3034.69 177.202 3031.6 173.302 3027.7C169.401 3023.8 166.308 3019.17 164.197 3014.07C162.086 3008.98 161 3003.52 161 2998L165.002 2998C165.002 3002.99 165.984 3007.93 167.894 3012.54C169.804 3017.15 172.603 3021.34 176.131 3024.87C179.66 3028.4 183.848 3031.2 188.459 3033.11C193.069 3035.02 198.01 3036 203 3036L203 3040Z" fill="#5C5C5C"/>
<path d="M203.5 3021C200.414 3021 197.358 3020.39 194.507 3019.21C191.656 3018.03 189.065 3016.3 186.883 3014.12C184.701 3011.93 182.97 3009.34 181.789 3006.49C180.608 3003.64 180 3000.59 180 2997.5L183.987 2997.5C183.987 3000.06 184.492 3002.6 185.472 3004.97C186.453 3007.33 187.89 3009.49 189.702 3011.3C191.514 3013.11 193.665 3014.55 196.033 3015.53C198.4 3016.51 200.937 3017.01 203.5 3017.01L203.5 3021Z" fill="#5C5C5C"/>
<path d="M203 3002C202.475 3002 201.955 3001.9 201.469 3001.7C200.984 3001.49 200.543 3001.2 200.172 3000.83C199.8 3000.46 199.506 3000.02 199.304 2999.53C199.103 2999.05 199 2998.53 199 2998L203 2998L203 3002Z" fill="#5C5C5C"/>
<path d="M1009.5 199C996.433 199 983.495 196.426 971.423 191.426C959.351 186.426 948.382 179.097 939.143 169.857C929.903 160.618 922.574 149.649 917.574 137.577C912.574 125.505 910 112.567 910 99.5L913.996 99.5C913.996 112.042 916.466 124.461 921.266 136.048C926.065 147.635 933.1 158.163 941.968 167.032C950.837 175.9 961.365 182.935 972.952 187.734C984.539 192.534 996.958 195.004 1009.5 195.004L1009.5 199Z" fill="#5C5C5C"/>
<path d="M1009 180C998.494 180 988.091 177.931 978.385 173.91C968.679 169.89 959.86 163.997 952.431 156.569C945.003 149.14 939.11 140.321 935.09 130.615C931.069 120.909 929 110.506 929 100L932.987 100C932.987 109.982 934.953 119.867 938.773 129.089C942.593 138.311 948.192 146.691 955.251 153.749C962.309 160.808 970.689 166.407 979.911 170.227C989.133 174.047 999.018 176.013 1009 176.013L1009 180Z" fill="#5C5C5C"/>
<path d="M1009 161C1000.99 161 993.057 159.422 985.656 156.357C978.255 153.291 971.531 148.798 965.866 143.134C960.202 137.469 955.709 130.745 952.643 123.344C949.578 115.943 948 108.011 948 100L952.006 100C952.006 107.485 953.48 114.896 956.344 121.811C959.209 128.725 963.407 135.008 968.699 140.301C973.992 145.593 980.274 149.791 987.189 152.656C994.104 155.52 1001.52 156.994 1009 156.994L1009 161Z" fill="#5C5C5C"/>
<path d="M1009 142C1003.48 142 998.023 140.914 992.927 138.803C987.832 136.692 983.202 133.599 979.302 129.698C975.401 125.798 972.308 121.168 970.197 116.073C968.086 110.977 967 105.516 967 100L971.002 100C971.002 104.99 971.984 109.931 973.894 114.541C975.804 119.152 978.603 123.34 982.131 126.869C985.66 130.397 989.848 133.196 994.459 135.106C999.069 137.016 1004.01 137.998 1009 137.998L1009 142Z" fill="#5C5C5C"/>
<path d="M1009.5 123C1006.41 123 1003.36 122.392 1000.51 121.211C997.656 120.03 995.065 118.299 992.883 116.117C990.701 113.935 988.97 111.344 987.789 108.493C986.608 105.642 986 102.586 986 99.5L989.987 99.5C989.987 102.063 990.492 104.6 991.472 106.967C992.453 109.335 993.89 111.486 995.702 113.298C997.514 115.11 999.665 116.547 1002.03 117.528C1004.4 118.508 1006.94 119.013 1009.5 119.013L1009.5 123Z" fill="#5C5C5C"/>
<path d="M1009 104C1008.47 104 1007.95 103.897 1007.47 103.696C1006.98 103.494 1006.54 103.2 1006.17 102.828C1005.8 102.457 1005.51 102.016 1005.3 101.531C1005.1 101.045 1005 100.525 1005 100L1009 100L1009 104Z" fill="#5C5C5C"/>
<path d="M1801 1519.5C1801 1532.57 1798.43 1545.51 1793.43 1557.58C1788.43 1569.65 1781.1 1580.62 1771.86 1589.86C1762.62 1599.1 1751.65 1606.43 1739.58 1611.43C1727.51 1616.43 1714.57 1619 1701.5 1619V1615C1714.04 1615 1726.46 1612.53 1738.05 1607.73C1749.63 1602.93 1760.16 1595.9 1769.03 1587.03C1777.9 1578.16 1784.93 1567.63 1789.73 1556.05C1794.53 1544.46 1797 1532.04 1797 1519.5H1801Z" fill="#5C5C5C"/>
<path d="M1782 1520C1782 1530.51 1779.93 1540.91 1775.91 1550.61C1771.89 1560.32 1766 1569.14 1758.57 1576.57C1751.14 1584 1742.32 1589.89 1732.61 1593.91C1722.91 1597.93 1712.51 1600 1702 1600V1596.01C1711.98 1596.01 1721.87 1594.05 1731.09 1590.23C1740.31 1586.41 1748.69 1580.81 1755.75 1573.75C1762.81 1566.69 1768.41 1558.31 1772.23 1549.09C1776.05 1539.87 1778.01 1529.98 1778.01 1520H1782Z" fill="#5C5C5C"/>
<path d="M1763 1520C1763 1528.01 1761.42 1535.94 1758.36 1543.34C1755.29 1550.74 1750.8 1557.47 1745.13 1563.13C1739.47 1568.8 1732.74 1573.29 1725.34 1576.36C1717.94 1579.42 1710.01 1581 1702 1581V1576.99C1709.48 1576.99 1716.9 1575.52 1723.81 1572.66C1730.73 1569.79 1737.01 1565.59 1742.3 1560.3C1747.59 1555.01 1751.79 1548.73 1754.66 1541.81C1757.52 1534.9 1758.99 1527.48 1758.99 1520H1763Z" fill="#5C5C5C"/>
<path d="M1744 1520C1744 1525.52 1742.91 1530.98 1740.8 1536.07C1738.69 1541.17 1735.6 1545.8 1731.7 1549.7C1727.8 1553.6 1723.17 1556.69 1718.07 1558.8C1712.98 1560.91 1707.52 1562 1702 1562V1558C1706.99 1558 1711.93 1557.02 1716.54 1555.11C1721.15 1553.2 1725.34 1550.4 1728.87 1546.87C1732.4 1543.34 1735.2 1539.15 1737.11 1534.54C1739.02 1529.93 1740 1524.99 1740 1520H1744Z" fill="#5C5C5C"/>
<path d="M1725 1519.5C1725 1522.59 1724.39 1525.64 1723.21 1528.49C1722.03 1531.34 1720.3 1533.93 1718.12 1536.12C1715.93 1538.3 1713.34 1540.03 1710.49 1541.21C1707.64 1542.39 1704.59 1543 1701.5 1543L1701.5 1539.01C1704.06 1539.01 1706.6 1538.51 1708.97 1537.53C1711.33 1536.55 1713.49 1535.11 1715.3 1533.3C1717.11 1531.49 1718.55 1529.33 1719.53 1526.97C1720.51 1524.6 1721.01 1522.06 1721.01 1519.5H1725Z" fill="#5C5C5C"/>
<path d="M1706 1520C1706 1520.53 1705.9 1521.05 1705.7 1521.53C1705.49 1522.02 1705.2 1522.46 1704.83 1522.83C1704.46 1523.2 1704.02 1523.49 1703.53 1523.7C1703.05 1523.9 1702.53 1524 1702 1524L1702 1520H1706Z" fill="#5C5C5C"/>
<rect x="1801" y="198.982" width="1321.02" height="3.99994" transform="rotate(90 1801 198.982)" fill="#5C5C5C"/>
<rect x="1782" y="198.982" width="1321.02" height="3.99994" transform="rotate(90 1782 198.982)" fill="#5C5C5C"/>
<rect x="1744" y="198.982" width="1321.02" height="3.99994" transform="rotate(90 1744 198.982)" fill="#5C5C5C"/>
<rect x="1763" y="197" width="1323" height="3.99999" transform="rotate(90 1763 197)" fill="#5C5C5C"/>
<rect x="1725" y="198.982" width="1321.02" height="3.99994" transform="rotate(90 1725 198.982)" fill="#5C5C5C"/>
<rect x="1706" y="198.982" width="1321.02" height="3.99994" transform="rotate(90 1706 198.982)" fill="#5C5C5C"/>
<rect x="203" y="1619.07" width="1378.93" height="3.99994" transform="rotate(90 203 1619.07)" fill="#5C5C5C"/>
<rect x="184" y="1619.07" width="1378.93" height="3.99994" transform="rotate(90 184 1619.07)" fill="#5C5C5C"/>
<rect x="146" y="1619.07" width="1378.93" height="3.99994" transform="rotate(90 146 1619.07)" fill="#5C5C5C"/>
<rect x="165" y="1617" width="1381" height="3.99999" transform="rotate(90 165 1617)" fill="#5C5C5C"/>
<rect x="127" y="1619.07" width="1378.93" height="3.99994" transform="rotate(90 127 1619.07)" fill="#5C5C5C"/>
<rect x="108" y="1619.07" width="1378.93" height="3.99994" transform="rotate(90 108 1619.07)" fill="#5C5C5C"/>
<rect x="202.25" y="1520" width="1499.75" height="3.99994" fill="#5C5C5C"/>
<rect x="202.25" y="1539" width="1499.75" height="3.99994" fill="#5C5C5C"/>
<rect x="202.25" y="1577" width="1499.75" height="3.99994" fill="#5C5C5C"/>
<rect x="200" y="1558" width="1502" height="3.99999" fill="#5C5C5C"/>
<rect x="202.25" y="1596" width="1499.75" height="3.99994" fill="#5C5C5C"/>
<rect x="202.25" y="1615" width="1499.75" height="3.99994" fill="#5C5C5C"/>
<rect x="203" y="2998" width="1500" height="3.99974" fill="#5C5C5C"/>
<rect x="203.25" y="3017" width="1499.75" height="3.99994" fill="#5C5C5C"/>
<rect x="203" y="3055" width="1500" height="3.99974" fill="#5C5C5C"/>
<rect x="201" y="3036" width="1502" height="3.99999" fill="#5C5C5C"/>
<rect x="202" y="3074" width="1501" height="3.99974" fill="#5C5C5C"/>
<rect x="203.25" y="3093" width="1499.75" height="3.99994" fill="#5C5C5C"/>
<path d="M1701.5 100C1714.57 100 1727.51 102.574 1739.58 107.574C1751.65 112.574 1762.62 119.903 1771.86 129.143C1781.1 138.382 1788.43 149.351 1793.43 161.423C1798.43 173.495 1801 186.433 1801 199.5L1797 199.5C1797 186.958 1794.53 174.539 1789.73 162.952C1784.93 151.365 1777.9 140.837 1769.03 131.968C1760.16 123.1 1749.63 116.065 1738.05 111.266C1726.46 106.466 1714.04 103.996 1701.5 103.996L1701.5 100Z" fill="#5C5C5C"/>
<path d="M1702 119C1712.51 119 1722.91 121.069 1732.61 125.09C1742.32 129.11 1751.14 135.003 1758.57 142.431C1766 149.86 1771.89 158.679 1775.91 168.385C1779.93 178.091 1782 188.494 1782 199L1778.01 199C1778.01 189.018 1776.05 179.133 1772.23 169.911C1768.41 160.689 1762.81 152.309 1755.75 145.251C1748.69 138.192 1740.31 132.593 1731.09 128.773C1721.87 124.953 1711.98 122.987 1702 122.987L1702 119Z" fill="#5C5C5C"/>
<path d="M1702 138C1710.01 138 1717.94 139.578 1725.34 142.643C1732.74 145.709 1739.47 150.202 1745.13 155.866C1750.8 161.531 1755.29 168.255 1758.36 175.656C1761.42 183.057 1763 190.989 1763 199L1758.99 199C1758.99 191.515 1757.52 184.104 1754.66 177.189C1751.79 170.274 1747.59 163.992 1742.3 158.699C1737.01 153.407 1730.73 149.209 1723.81 146.344C1716.9 143.48 1709.48 142.006 1702 142.006L1702 138Z" fill="#5C5C5C"/>
<path d="M1702 157C1707.52 157 1712.98 158.086 1718.07 160.197C1723.17 162.308 1727.8 165.401 1731.7 169.302C1735.6 173.202 1738.69 177.832 1740.8 182.927C1742.91 188.023 1744 193.484 1744 199L1740 199C1740 194.01 1739.02 189.069 1737.11 184.459C1735.2 179.848 1732.4 175.66 1728.87 172.131C1725.34 168.603 1721.15 165.804 1716.54 163.894C1711.93 161.984 1706.99 161.002 1702 161.002L1702 157Z" fill="#5C5C5C"/>
<path d="M1701.5 176C1704.59 176 1707.64 176.608 1710.49 177.789C1713.34 178.97 1715.93 180.701 1718.12 182.883C1720.3 185.065 1722.03 187.656 1723.21 190.507C1724.39 193.358 1725 196.414 1725 199.5L1721.01 199.5C1721.01 196.937 1720.51 194.4 1719.53 192.033C1718.55 189.665 1717.11 187.514 1715.3 185.702C1713.49 183.89 1711.33 182.453 1708.97 181.472C1706.6 180.492 1704.06 179.987 1701.5 179.987L1701.5 176Z" fill="#5C5C5C"/>
<path d="M1702 195C1702.53 195 1703.05 195.103 1703.53 195.304C1704.02 195.506 1704.46 195.8 1704.83 196.172C1705.2 196.543 1705.49 196.984 1705.7 197.469C1705.9 197.955 1706 198.475 1706 199L1702 199L1702 195Z" fill="#5C5C5C"/>
<rect x="1802" y="3097.11" width="1403.89" height="3.99994" transform="rotate(90 1802 3097.11)" fill="#5C5C5C"/>
<rect x="1783" y="3097.11" width="1403.89" height="3.99994" transform="rotate(90 1783 3097.11)" fill="#5C5C5C"/>
<rect x="1745" y="3097.11" width="1403.89" height="3.99994" transform="rotate(90 1745 3097.11)" fill="#5C5C5C"/>
<rect x="1764" y="3095" width="1406" height="3.99999" transform="rotate(90 1764 3095)" fill="#5C5C5C"/>
<rect x="1726" y="3097.11" width="1403.89" height="3.99994" transform="rotate(90 1726 3097.11)" fill="#5C5C5C"/>
<rect x="1707" y="3097.11" width="1403.89" height="3.99994" transform="rotate(90 1707 3097.11)" fill="#5C5C5C"/>
<path d="M1702.5 2998C1715.57 2998 1728.51 3000.57 1740.58 3005.57C1752.65 3010.57 1763.62 3017.9 1772.86 3027.14C1782.1 3036.38 1789.43 3047.35 1794.43 3059.42C1799.43 3071.49 1802 3084.43 1802 3097.5L1798 3097.5C1798 3084.96 1795.53 3072.54 1790.73 3060.95C1785.93 3049.37 1778.9 3038.84 1770.03 3029.97C1761.16 3021.1 1750.63 3014.07 1739.05 3009.27C1727.46 3004.47 1715.04 3002 1702.5 3002L1702.5 2998Z" fill="#5C5C5C"/>
<path d="M1703 3017C1713.51 3017 1723.91 3019.07 1733.61 3023.09C1743.32 3027.11 1752.14 3033 1759.57 3040.43C1767 3047.86 1772.89 3056.68 1776.91 3066.39C1780.93 3076.09 1783 3086.49 1783 3097L1779.01 3097C1779.01 3087.02 1777.05 3077.13 1773.23 3067.91C1769.41 3058.69 1763.81 3050.31 1756.75 3043.25C1749.69 3036.19 1741.31 3030.59 1732.09 3026.77C1722.87 3022.95 1712.98 3020.99 1703 3020.99L1703 3017Z" fill="#5C5C5C"/>
<path d="M1703 3036C1711.01 3036 1718.94 3037.58 1726.34 3040.64C1733.74 3043.71 1740.47 3048.2 1746.13 3053.87C1751.8 3059.53 1756.29 3066.26 1759.36 3073.66C1762.42 3081.06 1764 3088.99 1764 3097L1759.99 3097C1759.99 3089.52 1758.52 3082.1 1755.66 3075.19C1752.79 3068.27 1748.59 3061.99 1743.3 3056.7C1738.01 3051.41 1731.73 3047.21 1724.81 3044.34C1717.9 3041.48 1710.48 3040.01 1703 3040.01L1703 3036Z" fill="#5C5C5C"/>
<path d="M1703 3055C1708.52 3055 1713.98 3056.09 1719.07 3058.2C1724.17 3060.31 1728.8 3063.4 1732.7 3067.3C1736.6 3071.2 1739.69 3075.83 1741.8 3080.93C1743.91 3086.02 1745 3091.48 1745 3097L1741 3097C1741 3092.01 1740.02 3087.07 1738.11 3082.46C1736.2 3077.85 1733.4 3073.66 1729.87 3070.13C1726.34 3066.6 1722.15 3063.8 1717.54 3061.89C1712.93 3059.98 1707.99 3059 1703 3059L1703 3055Z" fill="#5C5C5C"/>
<path d="M1702.5 3074C1705.59 3074 1708.64 3074.61 1711.49 3075.79C1714.34 3076.97 1716.93 3078.7 1719.12 3080.88C1721.3 3083.07 1723.03 3085.66 1724.21 3088.51C1725.39 3091.36 1726 3094.41 1726 3097.5L1722.01 3097.5C1722.01 3094.94 1721.51 3092.4 1720.53 3090.03C1719.55 3087.67 1718.11 3085.51 1716.3 3083.7C1714.49 3081.89 1712.33 3080.45 1709.97 3079.47C1707.6 3078.49 1705.06 3077.99 1702.5 3077.99L1702.5 3074Z" fill="#5C5C5C"/>
<path d="M1703 3093C1703.53 3093 1704.05 3093.1 1704.53 3093.3C1705.02 3093.51 1705.46 3093.8 1705.83 3094.17C1706.2 3094.54 1706.49 3094.98 1706.7 3095.47C1706.9 3095.95 1707 3096.47 1707 3097L1703 3097L1703 3093Z" fill="#5C5C5C"/>
<path d="M104 1619.5C104 1606.43 106.574 1593.49 111.574 1581.42C116.574 1569.35 123.903 1558.38 133.143 1549.14C142.382 1539.9 153.351 1532.57 165.423 1527.57C177.495 1522.57 190.433 1520 203.5 1520L203.5 1524C190.958 1524 178.539 1526.47 166.952 1531.27C155.365 1536.07 144.837 1543.1 135.968 1551.97C127.1 1560.84 120.065 1571.37 115.266 1582.95C110.466 1594.54 107.996 1606.96 107.996 1619.5L104 1619.5Z" fill="#5C5C5C"/>
<path d="M123 1619C123 1608.49 125.069 1598.09 129.09 1588.39C133.11 1578.68 139.003 1569.86 146.431 1562.43C153.86 1555 162.679 1549.11 172.385 1545.09C182.091 1541.07 192.494 1539 203 1539L203 1542.99C193.018 1542.99 183.133 1544.95 173.911 1548.77C164.689 1552.59 156.309 1558.19 149.251 1565.25C142.192 1572.31 136.593 1580.69 132.773 1589.91C128.953 1599.13 126.987 1609.02 126.987 1619L123 1619Z" fill="#5C5C5C"/>
<path d="M142 1619C142 1610.99 143.578 1603.06 146.643 1595.66C149.709 1588.26 154.202 1581.53 159.866 1575.87C165.531 1570.2 172.255 1565.71 179.656 1562.64C187.057 1559.58 194.989 1558 203 1558L203 1562.01C195.515 1562.01 188.104 1563.48 181.189 1566.34C174.275 1569.21 167.992 1573.41 162.699 1578.7C157.407 1583.99 153.209 1590.27 150.344 1597.19C147.48 1604.1 146.006 1611.52 146.006 1619L142 1619Z" fill="#5C5C5C"/>
<path d="M161 1619C161 1613.48 162.086 1608.02 164.197 1602.93C166.308 1597.83 169.401 1593.2 173.302 1589.3C177.202 1585.4 181.832 1582.31 186.927 1580.2C192.023 1578.09 197.484 1577 203 1577L203 1581C198.01 1581 193.069 1581.98 188.459 1583.89C183.848 1585.8 179.66 1588.6 176.131 1592.13C172.603 1595.66 169.804 1599.85 167.894 1604.46C165.984 1609.07 165.002 1614.01 165.002 1619L161 1619Z" fill="#5C5C5C"/>
<path d="M180 1619.5C180 1616.41 180.608 1613.36 181.789 1610.51C182.97 1607.66 184.701 1605.07 186.883 1602.88C189.065 1600.7 191.656 1598.97 194.507 1597.79C197.358 1596.61 200.414 1596 203.5 1596L203.5 1599.99C200.937 1599.99 198.4 1600.49 196.033 1601.47C193.665 1602.45 191.514 1603.89 189.702 1605.7C187.89 1607.51 186.453 1609.67 185.472 1612.03C184.492 1614.4 183.987 1616.94 183.987 1619.5L180 1619.5Z" fill="#5C5C5C"/>
<path d="M199 1619C199 1618.47 199.103 1617.95 199.304 1617.47C199.506 1616.98 199.8 1616.54 200.172 1616.17C200.543 1615.8 200.984 1615.51 201.469 1615.3C201.955 1615.1 202.475 1615 203 1615L203 1619L199 1619Z" fill="#5C5C5C"/>
<rect x="1009" width="100" height="3.99999" transform="rotate(90 1009 0)" fill="#5C5C5C"/>
<rect x="990" width="100" height="3.99999" transform="rotate(90 990 0)" fill="#5C5C5C"/>
<rect x="952" width="100" height="3.99999" transform="rotate(90 952 0)" fill="#5C5C5C"/>
<rect x="971" width="100" height="3.99999" transform="rotate(90 971 0)" fill="#5C5C5C"/>
<rect x="933" width="100" height="3.99999" transform="rotate(90 933 0)" fill="#5C5C5C"/>
<rect x="914" width="100" height="3.99999" transform="rotate(90 914 0)" fill="#5C5C5C"/>
<rect x="1009" y="100" width="693" height="3.99999" fill="#5C5C5C"/>
<rect x="1009" y="119" width="693" height="3.99999" fill="#5C5C5C"/>
<rect x="1009" y="157" width="693" height="3.99999" fill="#5C5C5C"/>
<rect x="1009" y="138" width="693" height="3.99999" fill="#5C5C5C"/>
<rect x="1009" y="176" width="693" height="3.99999" fill="#5C5C5C"/>
<rect x="1009" y="195" width="693" height="3.99999" fill="#5C5C5C"/>
</svg>
