<svg width="99" height="71" viewBox="0 0 99 71" fill="none" xmlns="http://www.w3.org/2000/svg">
<rect x="28.0332" width="14.0177" height="14.0177" transform="rotate(90 28.0332 0)" fill="white"/>
<rect x="28.0332" y="14.0176" width="14.0177" height="14.0177" transform="rotate(90 28.0332 14.0176)" fill="black"/>
<rect x="28.0332" y="28.0352" width="14.0177" height="14.0177" transform="rotate(90 28.0332 28.0352)" fill="white"/>
<rect x="28.0332" y="42.0547" width="14.8938" height="14.0177" transform="rotate(90 28.0332 42.0547)" fill="black"/>
<rect x="28.0332" y="56.9453" width="14.0177" height="14.0177" transform="rotate(90 28.0332 56.9453)" fill="white"/>
<rect x="14.0176" width="14.0177" height="14.0177" transform="rotate(90 14.0176 0)" fill="black"/>
<rect x="14.0176" y="14.0176" width="14.0177" height="14.0177" transform="rotate(90 14.0176 14.0176)" fill="white"/>
<rect x="14.0176" y="28.0352" width="14.0177" height="14.0177" transform="rotate(90 14.0176 28.0352)" fill="black"/>
<rect x="14.0176" y="42.0547" width="14.8938" height="14.0177" transform="rotate(90 14.0176 42.0547)" fill="white"/>
<rect x="14.0176" y="56.9453" width="14.0177" height="14.0177" transform="rotate(90 14.0176 56.9453)" fill="black"/>
<rect x="84.9785" width="14.0177" height="14.0177" transform="rotate(90 84.9785 0)" fill="white"/>
<rect x="84.9785" y="14.0176" width="14.0177" height="14.0177" transform="rotate(90 84.9785 14.0176)" fill="black"/>
<rect x="84.9785" y="28.0352" width="14.0177" height="14.0177" transform="rotate(90 84.9785 28.0352)" fill="white"/>
<rect x="84.9785" y="42.0547" width="14.8938" height="14.0177" transform="rotate(90 84.9785 42.0547)" fill="black"/>
<rect x="84.9785" y="56.9453" width="14.0177" height="14.0177" transform="rotate(90 84.9785 56.9453)" fill="white"/>
<rect x="70.9629" width="14.0177" height="14.0177" transform="rotate(90 70.9629 0)" fill="black"/>
<rect x="70.9629" y="14.0176" width="14.0177" height="14.0177" transform="rotate(90 70.9629 14.0176)" fill="white"/>
<rect x="70.9629" y="28.0352" width="14.0177" height="14.0177" transform="rotate(90 70.9629 28.0352)" fill="black"/>
<rect x="70.9629" y="42.0547" width="14.8938" height="14.0177" transform="rotate(90 70.9629 42.0547)" fill="white"/>
<rect x="70.9629" y="56.9453" width="14.0177" height="14.0177" transform="rotate(90 70.9629 56.9453)" fill="black"/>
<rect x="56.9434" width="14.0177" height="14.8938" transform="rotate(90 56.9434 0)" fill="white"/>
<rect x="56.9434" y="14.0176" width="14.0177" height="14.8938" transform="rotate(90 56.9434 14.0176)" fill="black"/>
<rect x="56.9434" y="28.0352" width="14.0177" height="14.8938" transform="rotate(90 56.9434 28.0352)" fill="white"/>
<rect x="56.9434" y="42.0547" width="14.8938" height="14.8938" transform="rotate(90 56.9434 42.0547)" fill="black"/>
<rect x="56.9434" y="56.9453" width="14.0177" height="14.8938" transform="rotate(90 56.9434 56.9453)" fill="white"/>
<rect x="42.0527" width="14.0177" height="14.0177" transform="rotate(90 42.0527 0)" fill="black"/>
<rect x="42.0527" y="14.0176" width="14.0177" height="14.0177" transform="rotate(90 42.0527 14.0176)" fill="white"/>
<rect x="42.0527" y="28.0352" width="14.0177" height="14.0177" transform="rotate(90 42.0527 28.0352)" fill="black"/>
<rect x="42.0527" y="42.0547" width="14.8938" height="14.0177" transform="rotate(90 42.0527 42.0547)" fill="white"/>
<rect x="42.0527" y="56.9453" width="14.0177" height="14.0177" transform="rotate(90 42.0527 56.9453)" fill="black"/>
<rect x="98.998" width="14.0177" height="14.0177" transform="rotate(90 98.998 0)" fill="black"/>
<rect x="98.998" y="14.0176" width="14.0177" height="14.0177" transform="rotate(90 98.998 14.0176)" fill="white"/>
<rect x="98.998" y="28.0352" width="14.0177" height="14.0177" transform="rotate(90 98.998 28.0352)" fill="black"/>
<rect x="98.998" y="42.0547" width="14.8938" height="14.0177" transform="rotate(90 98.998 42.0547)" fill="white"/>
<rect x="98.998" y="56.9453" width="14.0177" height="14.0177" transform="rotate(90 98.998 56.9453)" fill="black"/>
<rect x="98.998" width="14.0177" height="14.0177" transform="rotate(90 98.998 0)" fill="black"/>
<rect x="98.998" y="14.0176" width="14.0177" height="14.0177" transform="rotate(90 98.998 14.0176)" fill="white"/>
<rect x="98.998" y="28.0352" width="14.0177" height="14.0177" transform="rotate(90 98.998 28.0352)" fill="black"/>
<rect x="98.998" y="42.0547" width="14.8938" height="14.0177" transform="rotate(90 98.998 42.0547)" fill="white"/>
<rect x="98.998" y="56.9453" width="14.0177" height="14.0177" transform="rotate(90 98.998 56.9453)" fill="black"/>
</svg>
