<svg width="1920" height="1200" viewBox="0 0 1920 1200" fill="none" xmlns="http://www.w3.org/2000/svg">
<rect width="1920" height="1200" fill="#FBFCFF"/>
<rect x="354" y="1084" width="173" height="4" transform="rotate(-90 354 1084)" fill="#0099FF"/>
<rect x="373" y="1084" width="173" height="4" transform="rotate(-90 373 1084)" fill="#022B53"/>
<rect x="411" y="1084" width="173" height="4" transform="rotate(-90 411 1084)" fill="#0099FF"/>
<rect x="392" y="1084" width="173" height="4" transform="rotate(-90 392 1084)" fill="#DF2935"/>
<rect x="430" y="1084" width="173" height="4" transform="rotate(-90 430 1084)" fill="#022B53"/>
<rect x="449" y="1084" width="173" height="4" transform="rotate(-90 449 1084)" fill="#DF2935"/>
<rect x="1010" width="115" height="4" transform="rotate(90 1010 0)" fill="#0099FF"/>
<rect x="991" width="115" height="4" transform="rotate(90 991 0)" fill="#022B53"/>
<rect x="953" width="115" height="4" transform="rotate(90 953 0)" fill="#0099FF"/>
<rect x="972" width="115" height="4" transform="rotate(90 972 0)" fill="#DF2935"/>
<rect x="934" width="115" height="4" transform="rotate(90 934 0)" fill="#022B53"/>
<rect x="915" width="115" height="4" transform="rotate(90 915 0)" fill="#DF2935"/>
<path d="M1010 114.5C1010 127.567 1007.43 140.505 1002.43 152.577C997.426 164.649 990.097 175.618 980.857 184.857C971.618 194.097 960.649 201.426 948.577 206.426C936.505 211.426 923.567 214 910.5 214L910.5 210.004C923.042 210.004 935.461 207.534 947.048 202.734C958.635 197.935 969.163 190.9 978.032 182.032C986.9 173.163 993.935 162.635 998.734 151.048C1003.53 139.461 1006 127.042 1006 114.5H1010Z" fill="#0099FF"/>
<path d="M991 115C991 125.506 988.931 135.909 984.91 145.615C980.89 155.321 974.997 164.14 967.569 171.569C960.14 178.997 951.321 184.89 941.615 188.91C931.909 192.931 921.506 195 911 195L911 191.013C920.982 191.013 930.867 189.047 940.089 185.227C949.311 181.407 957.691 175.808 964.749 168.749C971.808 161.691 977.407 153.311 981.227 144.089C985.047 134.867 987.013 124.982 987.013 115H991Z" fill="#022B53"/>
<path d="M972 115C972 123.011 970.422 130.943 967.357 138.344C964.291 145.745 959.798 152.469 954.134 158.134C948.469 163.798 941.745 168.291 934.344 171.357C926.943 174.422 919.011 176 911 176L911 171.994C918.485 171.994 925.896 170.52 932.811 167.656C939.726 164.791 946.008 160.593 951.301 155.301C956.593 150.008 960.791 143.726 963.656 136.811C966.52 129.896 967.994 122.485 967.994 115L972 115Z" fill="#DF2935"/>
<path d="M953 115C953 120.516 951.914 125.977 949.803 131.073C947.692 136.168 944.599 140.798 940.698 144.698C936.798 148.599 932.168 151.692 927.073 153.803C921.977 155.914 916.516 157 911 157L911 152.998C915.99 152.998 920.931 152.016 925.541 150.106C930.152 148.196 934.34 145.397 937.869 141.869C941.397 138.34 944.196 134.152 946.106 129.541C948.016 124.931 948.998 119.99 948.998 115H953Z" fill="#0099FF"/>
<path d="M934 114.5C934 117.586 933.392 120.642 932.211 123.493C931.03 126.344 929.299 128.935 927.117 131.117C924.935 133.299 922.344 135.03 919.493 136.211C916.642 137.392 913.586 138 910.5 138L910.5 134.013C913.063 134.013 915.6 133.508 917.967 132.528C920.335 131.547 922.486 130.11 924.298 128.298C926.11 126.486 927.547 124.335 928.528 121.967C929.508 119.6 930.013 117.063 930.013 114.5H934Z" fill="#022B53"/>
<path d="M915 115C915 115.525 914.897 116.045 914.696 116.531C914.494 117.016 914.2 117.457 913.828 117.828C913.457 118.2 913.016 118.494 912.531 118.696C912.045 118.897 911.525 119 911 119L911 115H915Z" fill="#DF2935"/>
<rect x="451" y="214" width="80" height="4" transform="rotate(90 451 214)" fill="#0099FF"/>
<rect x="432" y="214" width="80" height="4" transform="rotate(90 432 214)" fill="#022B53"/>
<rect x="394" y="214" width="80" height="4" transform="rotate(90 394 214)" fill="#0099FF"/>
<rect x="413" y="214" width="80" height="4" transform="rotate(90 413 214)" fill="#DF2935"/>
<rect x="375" y="214" width="80" height="4" transform="rotate(90 375 214)" fill="#022B53"/>
<rect x="356" y="214" width="80" height="4" transform="rotate(90 356 214)" fill="#DF2935"/>
<rect x="911" y="214" width="460" height="4" transform="rotate(-180 911 214)" fill="#0099FF"/>
<rect x="911" y="195" width="460" height="4" transform="rotate(-180 911 195)" fill="#022B53"/>
<rect x="911" y="157" width="460" height="4" transform="rotate(-180 911 157)" fill="#0099FF"/>
<rect x="911" y="176" width="460" height="4" transform="rotate(-180 911 176)" fill="#DF2935"/>
<rect x="911" y="138" width="460" height="4" transform="rotate(-180 911 138)" fill="#022B53"/>
<rect x="911" y="119" width="460" height="4" transform="rotate(-180 911 119)" fill="#DF2935"/>
<path d="M352 214.5C352 201.433 354.574 188.495 359.574 176.423C364.574 164.351 371.903 153.382 381.143 144.143C390.382 134.903 401.351 127.574 413.423 122.574C425.495 117.574 438.433 115 451.5 115L451.5 118.996C438.958 118.996 426.539 121.466 414.952 126.266C403.365 131.065 392.837 138.1 383.968 146.968C375.1 155.837 368.065 166.365 363.266 177.952C358.466 189.539 355.996 201.958 355.996 214.5L352 214.5Z" fill="#DF2935"/>
<path d="M371 214C371 203.494 373.069 193.091 377.09 183.385C381.11 173.679 387.003 164.86 394.431 157.431C401.86 150.003 410.679 144.11 420.385 140.09C430.091 136.069 440.494 134 451 134L451 137.987C441.018 137.987 431.133 139.953 421.911 143.773C412.689 147.593 404.309 153.192 397.251 160.251C390.192 167.309 384.593 175.689 380.773 184.911C376.953 194.133 374.987 204.018 374.987 214L371 214Z" fill="#022B53"/>
<path d="M390 214C390 205.989 391.578 198.057 394.643 190.656C397.709 183.255 402.202 176.531 407.866 170.866C413.531 165.202 420.255 160.709 427.656 157.643C435.057 154.578 442.989 153 451 153L451 157.006C443.515 157.006 436.104 158.48 429.189 161.344C422.275 164.209 415.992 168.407 410.699 173.699C405.407 178.992 401.209 185.274 398.344 192.189C395.48 199.104 394.006 206.515 394.006 214L390 214Z" fill="#0099FF"/>
<path d="M409 214C409 208.484 410.086 203.023 412.197 197.927C414.308 192.832 417.401 188.202 421.302 184.302C425.202 180.401 429.832 177.308 434.927 175.197C440.023 173.086 445.484 172 451 172L451 176.002C446.01 176.002 441.069 176.984 436.459 178.894C431.848 180.804 427.66 183.603 424.131 187.131C420.603 190.66 417.804 194.848 415.894 199.459C413.984 204.069 413.002 209.01 413.002 214L409 214Z" fill="#DF2935"/>
<path d="M428 214.5C428 211.414 428.608 208.358 429.789 205.507C430.97 202.656 432.701 200.065 434.883 197.883C437.065 195.701 439.656 193.97 442.507 192.789C445.358 191.608 448.414 191 451.5 191L451.5 194.987C448.937 194.987 446.4 195.492 444.033 196.472C441.665 197.453 439.514 198.89 437.702 200.702C435.89 202.514 434.453 204.665 433.472 207.033C432.492 209.4 431.987 211.937 431.987 214.5L428 214.5Z" fill="#022B53"/>
<path d="M447 214C447 213.475 447.103 212.955 447.304 212.469C447.506 211.984 447.8 211.543 448.172 211.172C448.543 210.8 448.984 210.506 449.469 210.304C449.955 210.103 450.475 210 451 210L451 214L447 214Z" fill="#0099FF"/>
<path d="M453.5 1183C440.433 1183 427.495 1180.43 415.423 1175.43C403.351 1170.43 392.382 1163.1 383.143 1153.86C373.903 1144.62 366.574 1133.65 361.574 1121.58C356.574 1109.51 354 1096.57 354 1083.5L357.996 1083.5C357.996 1096.04 360.466 1108.46 365.266 1120.05C370.065 1131.63 377.1 1142.16 385.968 1151.03C394.837 1159.9 405.365 1166.93 416.952 1171.73C428.539 1176.53 440.958 1179 453.5 1179L453.5 1183Z" fill="#0099FF"/>
<path d="M453 1164C442.494 1164 432.091 1161.93 422.385 1157.91C412.679 1153.89 403.86 1148 396.431 1140.57C389.003 1133.14 383.11 1124.32 379.09 1114.61C375.069 1104.91 373 1094.51 373 1084L376.987 1084C376.987 1093.98 378.953 1103.87 382.773 1113.09C386.593 1122.31 392.192 1130.69 399.251 1137.75C406.309 1144.81 414.689 1150.41 423.911 1154.23C433.133 1158.05 443.018 1160.01 453 1160.01L453 1164Z" fill="#022B53"/>
<path d="M453 1145C444.989 1145 437.057 1143.42 429.656 1140.36C422.255 1137.29 415.531 1132.8 409.866 1127.13C404.202 1121.47 399.709 1114.74 396.643 1107.34C393.578 1099.94 392 1092.01 392 1084L396.006 1084C396.006 1091.48 397.48 1098.9 400.344 1105.81C403.209 1112.73 407.407 1119.01 412.699 1124.3C417.992 1129.59 424.274 1133.79 431.189 1136.66C438.104 1139.52 445.515 1140.99 453 1140.99L453 1145Z" fill="#DF2935"/>
<path d="M453 1126C447.484 1126 442.023 1124.91 436.927 1122.8C431.832 1120.69 427.202 1117.6 423.302 1113.7C419.401 1109.8 416.308 1105.17 414.197 1100.07C412.086 1094.98 411 1089.52 411 1084L415.002 1084C415.002 1088.99 415.984 1093.93 417.894 1098.54C419.804 1103.15 422.603 1107.34 426.131 1110.87C429.66 1114.4 433.848 1117.2 438.459 1119.11C443.069 1121.02 448.01 1122 453 1122L453 1126Z" fill="#0099FF"/>
<path d="M453.5 1107C450.414 1107 447.358 1106.39 444.507 1105.21C441.656 1104.03 439.065 1102.3 436.883 1100.12C434.701 1097.93 432.97 1095.34 431.789 1092.49C430.608 1089.64 430 1086.59 430 1083.5L433.987 1083.5C433.987 1086.06 434.492 1088.6 435.472 1090.97C436.453 1093.33 437.89 1095.49 439.702 1097.3C441.514 1099.11 443.665 1100.55 446.033 1101.53C448.4 1102.51 450.937 1103.01 453.5 1103.01L453.5 1107Z" fill="#022B53"/>
<path d="M453 1088C452.475 1088 451.955 1087.9 451.469 1087.7C450.984 1087.49 450.543 1087.2 450.172 1086.83C449.8 1086.46 449.506 1086.02 449.304 1085.53C449.103 1085.05 449 1084.53 449 1084L453 1084L453 1088Z" fill="#DF2935"/>
<rect x="1920" y="1183" width="1468" height="4" transform="rotate(-180 1920 1183)" fill="#0099FF"/>
<rect x="1920" y="1164" width="1468" height="4" transform="rotate(-180 1920 1164)" fill="#022B53"/>
<rect x="1920" y="1126" width="1468" height="4" transform="rotate(-180 1920 1126)" fill="#0099FF"/>
<rect x="1920" y="1145" width="1468" height="4" transform="rotate(-180 1920 1145)" fill="#DF2935"/>
<rect x="1920" y="1107" width="1468" height="4" transform="rotate(-180 1920 1107)" fill="#022B53"/>
<rect x="1920" y="1088" width="1468" height="4" transform="rotate(-180 1920 1088)" fill="#DF2935"/>
</svg>
