<svg width="199" height="199" viewBox="0 0 199 199" fill="none" xmlns="http://www.w3.org/2000/svg">
<path d="M8.69857e-06 99.5C9.84088e-06 86.4335 2.57365 73.4949 7.574 61.423C12.5743 49.3511 19.9035 38.3823 29.1429 29.1429C38.3823 19.9034 49.3511 12.5743 61.423 7.57398C73.4949 2.57363 86.4335 -9.84088e-06 99.5 -8.69857e-06L99.5 3.99599C86.9583 3.99599 74.5393 6.46627 62.9522 11.2658C51.3651 16.0653 40.8369 23.1001 31.9685 31.9685C23.1001 40.8368 16.0654 51.3651 11.2658 62.9522C6.4663 74.5393 3.99601 86.9582 3.99601 99.5L8.69857e-06 99.5Z" fill="#080708"/>
<path d="M19 99C19 88.4942 21.0693 78.0914 25.0896 68.3853C29.11 58.6793 35.0028 49.8601 42.4315 42.4314C49.8602 35.0028 58.6793 29.11 68.3853 25.0896C78.0914 21.0693 88.4943 19 99 19L99 22.9868C89.0178 22.9868 79.1334 24.9529 69.911 28.7729C60.6887 32.593 52.309 38.1921 45.2506 45.2505C38.1921 52.309 32.593 60.6886 28.773 69.911C24.9529 79.1333 22.9868 89.0178 22.9868 99L19 99Z" fill="#080708"/>
<path d="M38 99C38 90.9894 39.5778 83.0572 42.6434 75.6563C45.7089 68.2554 50.2021 61.5309 55.8665 55.8665C61.5309 50.2021 68.2555 45.7089 75.6563 42.6433C83.0572 39.5778 90.9894 38 99 38L99 42.006C91.5155 42.006 84.1042 43.4802 77.1893 46.3444C70.2745 49.2086 63.9915 53.4067 58.6991 58.6991C53.4068 63.9915 49.2086 70.2745 46.3444 77.1893C43.4802 84.1042 42.006 91.5154 42.006 99L38 99Z" fill="#080708"/>
<path d="M57 99C57 93.4845 58.0864 88.023 60.1971 82.9273C62.3078 77.8316 65.4015 73.2016 69.3015 69.3015C73.2016 65.4014 77.8316 62.3077 82.9273 60.1971C88.023 58.0864 93.4845 57 99 57L99 61.0016C94.01 61.0016 89.0688 61.9845 84.4587 63.8941C79.8485 65.8037 75.6596 68.6026 72.1311 72.1311C68.6026 75.6596 65.8037 79.8485 63.8941 84.4586C61.9845 89.0688 61.0016 94.01 61.0016 99L57 99Z" fill="#080708"/>
<path d="M76 99.5C76 96.4139 76.6078 93.3581 77.7888 90.5069C78.9698 87.6558 80.7008 85.0652 82.883 82.883C85.0652 80.7008 87.6558 78.9698 90.5069 77.7888C93.3581 76.6078 96.4139 76 99.5 76L99.5 79.9868C96.9375 79.9868 94.4001 80.4915 92.0326 81.4722C89.6652 82.4528 87.5141 83.8901 85.7021 85.7021C83.8901 87.5141 82.4528 89.6652 81.4722 92.0326C80.4915 94.4001 79.9868 96.9375 79.9868 99.5L76 99.5Z" fill="#080708"/>
<path d="M95 99C95 98.4747 95.1035 97.9546 95.3045 97.4693C95.5055 96.984 95.8001 96.543 96.1716 96.1716C96.543 95.8001 96.984 95.5055 97.4693 95.3045C97.9546 95.1035 98.4747 95 99 95L99 99L95 99Z" fill="#080708"/>
</svg>
