<svg width="108" height="108" viewBox="0 0 108 108" fill="none" xmlns="http://www.w3.org/2000/svg">
<g clip-path="url(#clip0_459_1987)" filter="url(#filter0_d_459_1987)">
<path d="M96.5977 0H11.3828C7.30078 0 4 3.22266 4 7.20703V92.7734C4 96.7578 7.30078 100 11.3828 100H96.5977C100.68 100 104 96.7578 104 92.793V7.20703C104 3.22266 100.68 0 96.5977 0ZM33.668 85.2148H18.8242V37.4805H33.668V85.2148ZM26.2461 30.9766C21.4805 30.9766 17.6328 27.1289 17.6328 22.3828C17.6328 17.6367 21.4805 13.7891 26.2461 13.7891C30.9922 13.7891 34.8398 17.6367 34.8398 22.3828C34.8398 27.1094 30.9922 30.9766 26.2461 30.9766ZM89.2148 85.2148H74.3906V62.0117C74.3906 56.4844 74.293 49.3555 66.6758 49.3555C58.9609 49.3555 57.7891 55.3906 57.7891 61.6211V85.2148H42.9844V37.4805H57.2031V44.0039H57.3984C59.3711 40.2539 64.2148 36.2891 71.4219 36.2891C86.4414 36.2891 89.2148 46.1719 89.2148 59.0234V85.2148Z" fill="#FBFCFF"/>
</g>
<defs>
<filter id="filter0_d_459_1987" x="0" y="0" width="108" height="108" filterUnits="userSpaceOnUse" color-interpolation-filters="sRGB">
<feFlood flood-opacity="0" result="BackgroundImageFix"/>
<feColorMatrix in="SourceAlpha" type="matrix" values="0 0 0 0 0 0 0 0 0 0 0 0 0 0 0 0 0 0 127 0" result="hardAlpha"/>
<feOffset dy="4"/>
<feGaussianBlur stdDeviation="2"/>
<feComposite in2="hardAlpha" operator="out"/>
<feColorMatrix type="matrix" values="0 0 0 0 0 0 0 0 0 0 0 0 0 0 0 0 0 0 0.25 0"/>
<feBlend mode="normal" in2="BackgroundImageFix" result="effect1_dropShadow_459_1987"/>
<feBlend mode="normal" in="SourceGraphic" in2="effect1_dropShadow_459_1987" result="shape"/>
</filter>
<clipPath id="clip0_459_1987">
<rect width="100" height="100" fill="white" transform="translate(4)"/>
</clipPath>
</defs>
</svg>
