<svg width="199" height="199" viewBox="0 0 199 199" fill="none" xmlns="http://www.w3.org/2000/svg">
<path d="M99.5 -4.34928e-06C112.567 -4.92044e-06 125.505 2.57363 137.577 7.57398C149.649 12.5743 160.618 19.9034 169.857 29.1429C179.097 38.3823 186.426 49.3511 191.426 61.423C196.426 73.4949 199 86.4335 199 99.5L195.004 99.5C195.004 86.9582 192.534 74.5393 187.734 62.9522C182.935 51.3651 175.9 40.8368 167.032 31.9685C158.163 23.1001 147.635 16.0653 136.048 11.2658C124.461 6.46629 112.042 3.996 99.5 3.996L99.5 -4.34928e-06Z" fill="#080708"/>
<path d="M100 19C110.506 19 120.909 21.0693 130.615 25.0896C140.321 29.11 149.14 35.0028 156.569 42.4315C163.997 49.8601 169.89 58.6793 173.91 68.3853C177.931 78.0914 180 88.4942 180 99L176.013 99C176.013 89.0178 174.047 79.1333 170.227 69.911C166.407 60.6887 160.808 52.309 153.749 45.2505C146.691 38.1921 138.311 32.593 129.089 28.7729C119.867 24.9529 109.982 22.9868 100 22.9868L100 19Z" fill="#080708"/>
<path d="M100 38C108.011 38 115.943 39.5778 123.344 42.6433C130.745 45.7089 137.469 50.2021 143.134 55.8665C148.798 61.5309 153.291 68.2555 156.357 75.6563C159.422 83.0572 161 90.9894 161 99L156.994 99C156.994 91.5154 155.52 84.1042 152.656 77.1893C149.791 70.2745 145.593 63.9915 140.301 58.6991C135.008 53.4067 128.726 49.2086 121.811 46.3444C114.896 43.4802 107.485 42.006 100 42.006L100 38Z" fill="#080708"/>
<path d="M100 57C105.516 57 110.977 58.0864 116.073 60.1971C121.168 62.3078 125.798 65.4015 129.698 69.3015C133.599 73.2016 136.692 77.8316 138.803 82.9273C140.914 88.023 142 93.4845 142 99L137.998 99C137.998 94.01 137.016 89.0688 135.106 84.4587C133.196 79.8485 130.397 75.6596 126.869 72.1311C123.34 68.6026 119.152 65.8037 114.541 63.8941C109.931 61.9845 104.99 61.0016 100 61.0016L100 57Z" fill="#080708"/>
<path d="M99.5 76C102.586 76 105.642 76.6078 108.493 77.7888C111.344 78.9698 113.935 80.7008 116.117 82.883C118.299 85.0652 120.03 87.6558 121.211 90.5069C122.392 93.3581 123 96.4139 123 99.5L119.013 99.5C119.013 96.9375 118.508 94.4001 117.528 92.0326C116.547 89.6652 115.11 87.5141 113.298 85.7021C111.486 83.8901 109.335 82.4528 106.967 81.4722C104.6 80.4915 102.063 79.9868 99.5 79.9868L99.5 76Z" fill="#080708"/>
<path d="M100 95C100.525 95 101.045 95.1035 101.531 95.3045C102.016 95.5055 102.457 95.8001 102.828 96.1716C103.2 96.543 103.494 96.984 103.696 97.4693C103.897 97.9546 104 98.4747 104 99L100 99L100 95Z" fill="#080708"/>
</svg>
