<svg width="128" height="600" viewBox="0 0 128 600" fill="none" xmlns="http://www.w3.org/2000/svg">
<path d="M3.98432 590.638L0.584298 590.638L4.20433 585.319L0.7643 580.399L4.06432 580.399L6.22434 583.619L6.42434 583.619L8.58436 580.399L11.8844 580.399L8.44436 585.319L12.0644 590.638L8.66436 590.638L6.42434 587.098L6.22434 587.098L3.98432 590.638ZM19.4808 590.638L16.2408 590.638L16.2408 580.219L16.0208 580.219L12.7808 582.619L12.7808 579.339L16.7008 576.399L19.4808 576.399L19.4808 590.638ZM28.2528 591.018C24.4128 591.018 21.7727 587.938 21.7727 583.519C21.7727 579.099 24.4128 576.019 28.2528 576.019C32.0728 576.019 34.7328 579.099 34.7328 583.519C34.7328 587.938 32.0728 591.018 28.2528 591.018ZM28.2528 588.158C30.1528 588.158 31.4128 586.279 31.4128 583.519C31.4128 580.759 30.1528 578.879 28.2528 578.879C26.3528 578.879 25.0928 580.759 25.0928 583.519C25.0928 586.279 26.3528 588.158 28.2528 588.158ZM42.9599 591.018C39.1199 591.018 36.4799 587.938 36.4799 583.519C36.4799 579.099 39.1199 576.019 42.9599 576.019C46.78 576.019 49.44 579.099 49.44 583.519C49.44 587.938 46.78 591.018 42.9599 591.018ZM42.9599 588.158C44.8599 588.158 46.12 586.279 46.12 583.519C46.12 580.759 44.8599 578.879 42.9599 578.879C41.0599 578.879 39.7999 580.759 39.7999 583.519C39.7999 586.279 41.0599 588.158 42.9599 588.158ZM57.6671 591.018C53.827 591.018 51.187 587.938 51.187 583.519C51.187 579.099 53.827 576.019 57.6671 576.019C61.4871 576.019 64.1471 579.099 64.1471 583.519C64.1471 587.938 61.4871 591.018 57.6671 591.018ZM57.6671 588.158C59.5671 588.158 60.8271 586.279 60.8271 583.519C60.8271 580.759 59.5671 578.879 57.6671 578.879C55.7671 578.879 54.507 580.759 54.507 583.519C54.507 586.279 55.7671 588.158 57.6671 588.158ZM70.6142 590.998C67.5742 590.998 65.7342 589.578 65.7342 587.218L68.3542 587.218C68.3542 588.298 69.2342 589.038 70.6942 589.038C71.8142 589.038 72.5542 588.558 72.5542 587.778C72.5542 586.838 71.4942 586.718 70.2542 586.598C68.3742 586.399 65.8542 586.099 65.8542 583.459C65.8542 581.359 67.6742 580.039 70.4142 580.039C73.1542 580.039 75.1342 581.379 75.1342 583.499L72.4342 583.499C72.4142 582.579 71.5942 581.999 70.4142 581.999C69.3342 581.999 68.5942 582.479 68.5942 583.219C68.5942 584.179 69.8542 584.239 71.2742 584.399C73.1542 584.619 75.4542 585.079 75.4542 587.518C75.4542 589.698 73.6342 590.998 70.6142 590.998ZM78.4779 595.238L75.8178 595.238L82.0379 576.399L84.6979 576.399L78.4779 595.238ZM88.7428 590.638L85.7828 590.638L85.7828 580.399L88.7228 580.399L88.7228 581.919L88.9228 581.919C89.5028 580.819 90.5828 580.079 91.8828 580.079C93.2228 580.079 94.4828 580.859 95.0228 582.019L95.2228 582.019C95.8428 580.839 96.9828 580.099 98.4428 580.099C100.703 580.099 102.323 581.819 102.323 584.299L102.323 590.638L99.3629 590.638L99.3629 584.799C99.3629 583.559 98.5828 582.639 97.4428 582.619C96.2828 582.619 95.4828 583.519 95.4828 584.799L95.4828 590.638L92.5028 590.638L92.5028 584.799C92.5028 583.479 91.7828 582.619 90.6628 582.619C89.5028 582.619 88.7428 583.479 88.7428 584.799L88.7428 590.638ZM106.016 578.979C104.976 578.979 104.236 578.259 104.236 577.239C104.236 576.239 104.976 575.499 106.016 575.499C107.056 575.499 107.796 576.239 107.796 577.239C107.796 578.259 107.056 578.979 106.016 578.979ZM107.496 590.638L104.536 590.638L104.536 580.399L107.496 580.399L107.496 590.638ZM112.825 590.638L109.865 590.638L109.865 580.399L112.825 580.399L112.825 581.839L113.025 581.839C113.785 580.679 114.765 580.099 116.005 580.099C118.325 580.099 119.866 581.899 119.866 584.359L119.866 590.638L116.905 590.638L116.905 584.779C116.905 583.519 116.185 582.639 114.985 582.639C113.805 582.639 112.825 583.579 112.825 584.879L112.825 590.638Z" fill="#FBFCFF"/>
<rect width="46.7815" height="13.445" transform="matrix(1 1.19249e-08 0.00293329 0.999996 81.1797 19.8555)" fill="#FBFCFF"/>
<rect width="23.3907" height="3.20119" transform="matrix(1 1.19249e-08 0.00293329 0.999996 104.451 48.7129)" fill="#FBFCFF"/>
<rect width="23.3907" height="3.20119" transform="matrix(1 1.19249e-08 0.00293329 0.999996 104.348 67.2773)" fill="#FBFCFF"/>
<rect width="23.3907" height="3.20119" transform="matrix(1 1.19249e-08 0.00293329 0.999996 104.244 85.8457)" fill="#FBFCFF"/>
<rect width="23.3907" height="3.20119" transform="matrix(1 1.19249e-08 0.00293329 0.999996 104.141 104.416)" fill="#FBFCFF"/>
<rect width="46.7815" height="13.445" transform="matrix(1 1.19249e-08 0.00293329 0.999996 80.6016 122.934)" fill="#FBFCFF"/>
<rect width="23.3907" height="3.20119" transform="matrix(1 1.19249e-08 0.00293329 0.999996 103.873 151.789)" fill="#FBFCFF"/>
<rect width="23.3907" height="3.20119" transform="matrix(1 1.19249e-08 0.00293329 0.999996 103.771 170.357)" fill="#FBFCFF"/>
<rect width="23.3907" height="3.20119" transform="matrix(1 1.19249e-08 0.00293329 0.999996 103.668 188.92)" fill="#FBFCFF"/>
<rect width="23.3907" height="3.20119" transform="matrix(1 1.19249e-08 0.00293329 0.999996 103.562 207.484)" fill="#FBFCFF"/>
<rect width="46.7815" height="13.445" transform="matrix(1 1.19249e-08 0.00293329 0.999996 80.0234 226.01)" fill="#FBFCFF"/>
<rect width="23.3907" height="3.20119" transform="matrix(1 1.19249e-08 0.00293329 0.999996 103.299 254.867)" fill="#FBFCFF"/>
<rect width="23.3907" height="3.20119" transform="matrix(1 1.19249e-08 0.00293329 0.999996 103.193 273.436)" fill="#FBFCFF"/>
<rect width="23.3907" height="3.20119" transform="matrix(1 1.19249e-08 0.00293329 0.999996 103.09 292.006)" fill="#FBFCFF"/>
<rect width="23.3907" height="3.20119" transform="matrix(1 1.19249e-08 0.00293329 0.999996 102.988 310.568)" fill="#FBFCFF"/>
<rect width="46.7815" height="13.445" transform="matrix(1 1.19249e-08 0.00293329 0.999996 79.4492 329.088)" fill="#FBFCFF"/>
<rect width="23.3907" height="3.20119" transform="matrix(1 1.19249e-08 0.00293329 0.999996 102.432 358.016)" fill="#FBFCFF"/>
<rect width="23.3907" height="3.20119" transform="matrix(1 1.19249e-08 0.00293329 0.999996 102.328 376.59)" fill="#FBFCFF"/>
<rect width="23.3907" height="3.20119" transform="matrix(1 1.19249e-08 0.00293329 0.999996 102.225 395.152)" fill="#FBFCFF"/>
<rect width="23.3907" height="3.20119" transform="matrix(1 1.19249e-08 0.00293329 0.999996 102.121 413.723)" fill="#FBFCFF"/>
<rect width="46.7815" height="13.445" transform="matrix(1 1.19249e-08 0.00293329 0.999996 78.582 432.234)" fill="#FABA0E"/>
<rect width="23.3907" height="3.20119" transform="matrix(1 1.19249e-08 0.00293329 0.999996 101.652 461.094)" fill="#FABA0E"/>
<rect width="23.3907" height="3.20119" transform="matrix(1 1.19249e-08 0.00293329 0.999996 101.549 479.668)" fill="#FF0011"/>
<rect width="23.3907" height="3.20119" transform="matrix(1 1.19249e-08 0.00293329 0.999996 101.445 498.23)" fill="#FF0011"/>
<rect width="23.3907" height="3.20119" transform="matrix(1 1.19249e-08 0.00293329 0.999996 101.34 516.805)" fill="#FF0011"/>
<rect width="46.7815" height="13.445" transform="matrix(1 1.19249e-08 0.00293329 0.999996 77.8008 535.324)" fill="#FF0011"/>
<path d="M66.1212 251.945L34.5009 251.945L34.5009 246.425L52.261 230.645C55.3811 227.825 57.8411 225.725 57.8411 222.545C57.8411 218.825 54.9611 216.125 51.181 216.125C46.861 216.125 43.681 219.545 43.501 224.765L34.6209 224.765C34.3809 215.105 41.401 208.085 51.301 208.085C60.4211 208.085 67.0212 213.845 67.0812 221.705C67.0812 226.865 63.7811 230.765 58.6211 235.205L48.721 243.785L48.721 244.385L66.1212 244.385L66.1212 251.945Z" fill="#FBFCFF"/>
<path d="M50.5517 356.057C40.9517 356.057 33.6916 349.158 33.3316 339.738L42.6317 339.738C42.6317 344.658 45.9917 348.258 50.4317 348.258C54.7518 348.258 57.8718 345.318 57.8718 341.298C57.8718 337.218 54.6918 334.278 50.3717 334.278C49.1717 334.278 47.6717 334.518 46.7717 334.938L44.6117 329.238L53.3718 320.358L53.3718 319.758L36.0916 319.758L36.0916 312.198L65.6718 312.198L65.6718 318.018L55.5318 328.398C62.2518 329.538 67.2919 334.998 67.2919 341.958C67.2919 350.117 60.2718 356.057 50.5517 356.057Z" fill="#FBFCFF"/>
<path d="M59.2075 148.972L49.4874 148.972L49.4874 117.712L48.8274 117.712L39.1074 124.912L39.1074 115.073L50.8674 106.253L59.2075 106.253L59.2075 148.972Z" fill="#FBFCFF"/>
<path d="M50.4547 47.1375C38.9346 47.1375 31.0146 37.8976 31.0146 24.6378C31.0146 11.3779 38.9346 2.13802 50.4547 2.13802C61.9148 2.13802 69.8949 11.3779 69.8949 24.6378C69.8949 37.8976 61.9148 47.1375 50.4547 47.1375ZM50.4547 38.5576C56.1547 38.5576 59.9348 32.9177 59.9348 24.6378C59.9348 16.3579 56.1547 10.7179 50.4547 10.7179C44.7547 10.7179 40.9746 16.3579 40.9746 24.6378C40.9746 32.9177 44.7547 38.5576 50.4547 38.5576Z" fill="#FBFCFF"/>
<path d="M62.6872 460.693L52.7272 460.693L52.7272 451.873L32.2672 451.873L32.2672 446.413L48.5272 417.973L62.6872 417.973L62.6872 444.373L67.6672 444.373L67.6672 451.873L62.6872 451.873L62.6872 460.693ZM52.0672 426.253L41.9272 444.373L52.6672 444.373L52.6672 426.253L52.0672 426.253Z" fill="#FBFCFF"/>
<path d="M50.4801 562.294C40.8801 562.294 33.6801 555.514 33.3201 546.274L42.5601 546.274C42.5601 550.894 45.9201 554.494 50.3601 554.494C54.7401 554.494 57.8601 551.434 57.8601 547.534C57.8601 543.274 54.6201 540.394 49.4001 540.394L36.6801 540.394L38.6001 518.434L63.9201 518.434L63.9201 525.994L45.9201 525.994L45.1401 533.674L51.9801 533.674C61.1001 533.674 67.2201 539.614 67.2201 547.774C67.2201 556.234 60.1401 562.294 50.4801 562.294Z" fill="#FBFCFF"/>
</svg>
