<svg width="198" height="199" viewBox="0 0 198 199" fill="none" xmlns="http://www.w3.org/2000/svg">
<path d="M6.56022e-06 99.5C4.25322e-06 73.111 10.4303 47.8028 28.9964 29.1429C47.5625 10.483 72.7436 -4.30852e-06 99 -6.60393e-06C125.256 -8.89934e-06 150.437 10.483 169.004 29.1429C187.57 47.8027 198 73.1109 198 99.5L194.024 99.5C194.024 74.1707 184.013 49.8789 166.192 31.9685C148.372 14.058 124.202 3.99599 99 3.996C73.798 3.996 49.6283 14.058 31.8078 31.9685C13.9874 49.879 3.97593 74.1708 3.97593 99.5L6.56022e-06 99.5Z" fill="#FBFCFF"/>
<path d="M19 99C19 77.7827 27.4285 57.4344 42.4314 42.4315C57.4344 27.4286 77.7827 19 99 19C120.217 19 140.566 27.4285 155.569 42.4315C170.571 57.4344 179 77.7827 179 99L175.013 99C175.013 78.84 167.005 59.5058 152.749 45.2505C138.494 30.9953 119.16 22.9868 99 22.9868C78.84 22.9868 59.5058 30.9953 45.2505 45.2506C30.9953 59.5058 22.9868 78.8401 22.9868 99L19 99Z" fill="#FBFCFF"/>
<path d="M38 99C38 82.8218 44.4268 67.3062 55.8665 55.8665C67.3062 44.4268 82.8218 38 99 38C115.178 38 130.694 44.4268 142.133 55.8665C153.573 67.3062 160 82.8218 160 99L155.994 99C155.994 83.8842 149.989 69.3876 139.301 58.6991C128.612 48.0107 114.116 42.006 99 42.006C83.8842 42.006 69.3876 48.0107 58.6991 58.6991C48.0107 69.3876 42.006 83.8843 42.006 99L38 99Z" fill="#FBFCFF"/>
<path d="M57 99C57 87.8609 61.425 77.1781 69.3015 69.3015C77.178 61.425 87.8609 57 99 57C110.139 57 120.822 61.425 128.698 69.3015C136.575 77.178 141 87.8609 141 99L136.998 99C136.998 88.9222 132.995 79.2572 125.869 72.1311C118.743 65.005 109.078 61.0016 99 61.0016C88.9222 61.0016 79.2572 65.005 72.1311 72.1311C65.005 79.2572 61.0016 88.9222 61.0016 99L57 99Z" fill="#FBFCFF"/>
<path d="M76 99.5C76 96.4139 76.5949 93.3581 77.7508 90.5069C78.9066 87.6558 80.6008 85.0652 82.7365 82.883C84.8723 80.7008 87.4078 78.9698 90.1983 77.7888C92.9888 76.6078 95.9796 76 99 76C102.02 76 105.011 76.6078 107.802 77.7888C110.592 78.9698 113.128 80.7008 115.263 82.883C117.399 85.0652 119.093 87.6558 120.249 90.5069C121.405 93.3581 122 96.4139 122 99.5L118.098 99.5C118.098 96.9375 117.604 94.4001 116.644 92.0326C115.684 89.6652 114.278 87.5141 112.504 85.7021C110.731 83.8901 108.626 82.4528 106.308 81.4722C103.991 80.4915 101.508 79.9868 99 79.9868C96.492 79.9868 94.0086 80.4915 91.6915 81.4722C89.3744 82.4528 87.2691 83.8901 85.4957 85.7021C83.7223 87.5141 82.3155 89.6652 81.3557 92.0326C80.396 94.4001 79.902 96.9375 79.902 99.5L76 99.5Z" fill="#FBFCFF"/>
<path d="M95 99C95 97.9391 95.4214 96.9217 96.1716 96.1716C96.9217 95.4214 97.9391 95 99 95C100.061 95 101.078 95.4214 101.828 96.1716C102.579 96.9217 103 97.9391 103 99L99 99L95 99Z" fill="#FBFCFF"/>
</svg>
