<svg width="199" height="199" viewBox="0 0 199 199" fill="none" xmlns="http://www.w3.org/2000/svg">
<path d="M199 99.5C199 112.567 196.426 125.505 191.426 137.577C186.426 149.649 179.097 160.618 169.857 169.857C160.618 179.097 149.649 186.426 137.577 191.426C125.505 196.426 112.566 199 99.5 199L99.5 195.004C112.042 195.004 124.461 192.534 136.048 187.734C147.635 182.935 158.163 175.9 167.031 167.032C175.9 158.163 182.935 147.635 187.734 136.048C192.534 124.461 195.004 112.042 195.004 99.5L199 99.5Z" fill="#FBFCFF"/>
<path d="M180 100C180 110.506 177.931 120.909 173.91 130.615C169.89 140.321 163.997 149.14 156.569 156.569C149.14 163.997 140.321 169.89 130.615 173.91C120.909 177.931 110.506 180 100 180L100 176.013C109.982 176.013 119.867 174.047 129.089 170.227C138.311 166.407 146.691 160.808 153.749 153.749C160.808 146.691 166.407 138.311 170.227 129.089C174.047 119.867 176.013 109.982 176.013 100L180 100Z" fill="#FBFCFF"/>
<path d="M161 100C161 108.011 159.422 115.943 156.357 123.344C153.291 130.745 148.798 137.469 143.133 143.134C137.469 148.798 130.745 153.291 123.344 156.357C115.943 159.422 108.011 161 100 161L100 156.994C107.485 156.994 114.896 155.52 121.811 152.656C128.725 149.791 135.008 145.593 140.301 140.301C145.593 135.009 149.791 128.726 152.656 121.811C155.52 114.896 156.994 107.485 156.994 100L161 100Z" fill="#FBFCFF"/>
<path d="M142 100C142 105.516 140.914 110.977 138.803 116.073C136.692 121.168 133.599 125.798 129.698 129.698C125.798 133.599 121.168 136.692 116.073 138.803C110.977 140.914 105.516 142 100 142L100 137.998C104.99 137.998 109.931 137.016 114.541 135.106C119.152 133.196 123.34 130.397 126.869 126.869C130.397 123.34 133.196 119.152 135.106 114.541C137.016 109.931 137.998 104.99 137.998 100L142 100Z" fill="#FBFCFF"/>
<path d="M123 99.5C123 102.586 122.392 105.642 121.211 108.493C120.03 111.344 118.299 113.935 116.117 116.117C113.935 118.299 111.344 120.03 108.493 121.211C105.642 122.392 102.586 123 99.5 123L99.5 119.013C102.063 119.013 104.6 118.508 106.967 117.528C109.335 116.547 111.486 115.11 113.298 113.298C115.11 111.486 116.547 109.335 117.528 106.967C118.508 104.6 119.013 102.063 119.013 99.5L123 99.5Z" fill="#FBFCFF"/>
<path d="M104 100C104 100.525 103.897 101.045 103.696 101.531C103.494 102.016 103.2 102.457 102.828 102.828C102.457 103.2 102.016 103.495 101.531 103.696C101.045 103.897 100.525 104 100 104L100 100L104 100Z" fill="#FBFCFF"/>
</svg>
