<svg width="199" height="199" viewBox="0 0 199 199" fill="none" xmlns="http://www.w3.org/2000/svg">
<path d="M99.5 199C86.4335 199 73.4949 196.426 61.423 191.426C49.3511 186.426 38.3823 179.097 29.1429 169.857C19.9034 160.618 12.5743 149.649 7.57398 137.577C2.57363 125.505 -4.92044e-06 112.567 -4.34928e-06 99.5L3.996 99.5C3.996 112.042 6.46627 124.461 11.2658 136.048C16.0653 147.635 23.1001 158.163 31.9685 167.032C40.8368 175.9 51.3651 182.935 62.9522 187.734C74.5393 192.534 86.9582 195.004 99.5 195.004L99.5 199Z" fill="#FBFCFF"/>
<path d="M99 180C88.4942 180 78.0914 177.931 68.3853 173.91C58.6793 169.89 49.8601 163.997 42.4315 156.569C35.0028 149.14 29.11 140.321 25.0896 130.615C21.0693 120.909 19 110.506 19 100L22.9868 100C22.9868 109.982 24.9529 119.867 28.7729 129.089C32.593 138.311 38.1921 146.691 45.2505 153.749C52.309 160.808 60.6887 166.407 69.911 170.227C79.1333 174.047 89.0178 176.013 99 176.013L99 180Z" fill="#FBFCFF"/>
<path d="M99 161C90.9894 161 83.0572 159.422 75.6563 156.357C68.2554 153.291 61.5309 148.798 55.8665 143.134C50.2021 137.469 45.7089 130.745 42.6433 123.344C39.5778 115.943 38 108.011 38 100L42.006 100C42.006 107.485 43.4802 114.896 46.3444 121.811C49.2086 128.725 53.4067 135.008 58.6991 140.301C63.9915 145.593 70.2745 149.791 77.1893 152.656C84.1042 155.52 91.5154 156.994 99 156.994L99 161Z" fill="#FBFCFF"/>
<path d="M99 142C93.4845 142 88.023 140.914 82.9273 138.803C77.8316 136.692 73.2016 133.599 69.3015 129.698C65.4014 125.798 62.3078 121.168 60.1971 116.073C58.0864 110.977 57 105.516 57 100L61.0016 100C61.0016 104.99 61.9845 109.931 63.8941 114.541C65.8037 119.152 68.6026 123.34 72.1311 126.869C75.6596 130.397 79.8485 133.196 84.4586 135.106C89.0688 137.016 94.01 137.998 99 137.998L99 142Z" fill="#FBFCFF"/>
<path d="M99.5 123C96.4139 123 93.3581 122.392 90.5069 121.211C87.6558 120.03 85.0652 118.299 82.883 116.117C80.7008 113.935 78.9698 111.344 77.7888 108.493C76.6078 105.642 76 102.586 76 99.5L79.9868 99.5C79.9868 102.063 80.4915 104.6 81.4722 106.967C82.4528 109.335 83.8901 111.486 85.7021 113.298C87.5141 115.11 89.6652 116.547 92.0326 117.528C94.4001 118.508 96.9375 119.013 99.5 119.013L99.5 123Z" fill="#FBFCFF"/>
<path d="M99 104C98.4747 104 97.9546 103.897 97.4693 103.696C96.984 103.494 96.543 103.2 96.1716 102.828C95.8001 102.457 95.5055 102.016 95.3045 101.531C95.1035 101.045 95 100.525 95 100L99 100L99 104Z" fill="#FBFCFF"/>
</svg>
