<svg width="1404" height="1080" viewBox="0 0 1404 1080" fill="none" xmlns="http://www.w3.org/2000/svg">
<rect x="956" y="-4" width="254" height="4" transform="rotate(90 956 -4)" fill="#FBFCFF"/>
<rect x="937" y="-4" width="254" height="4" transform="rotate(90 937 -4)" fill="#FBFCFF"/>
<rect x="899" y="-4" width="254" height="4" transform="rotate(90 899 -4)" fill="#FBFCFF"/>
<rect x="918" y="-4" width="254" height="4" transform="rotate(90 918 -4)" fill="#FBFCFF"/>
<rect x="880" y="-4" width="254" height="4" transform="rotate(90 880 -4)" fill="#FBFCFF"/>
<rect x="861" y="-4" width="254" height="4" transform="rotate(90 861 -4)" fill="#FBFCFF"/>
<rect x="951" y="491" width="255" height="4" fill="#FBFCFF"/>
<rect x="951" y="510" width="255" height="4" fill="#FBFCFF"/>
<rect x="951" y="548" width="255" height="4" fill="#FBFCFF"/>
<rect x="951" y="529" width="255" height="4" fill="#FBFCFF"/>
<rect x="951" y="567" width="255" height="4" fill="#FBFCFF"/>
<rect x="951" y="586" width="255" height="4" fill="#FBFCFF"/>
<rect x="99" y="250" width="758" height="4" fill="#FBFCFF"/>
<rect x="99" y="269" width="758" height="4" fill="#FBFCFF"/>
<rect x="99" y="307" width="758" height="4" fill="#FBFCFF"/>
<rect x="99" y="288" width="758" height="4" fill="#FBFCFF"/>
<rect x="99" y="326" width="758" height="4" fill="#FBFCFF"/>
<rect x="99" y="345" width="758" height="4" fill="#FBFCFF"/>
<rect x="1207" y="858" width="222" height="4" transform="rotate(90 1207 858)" fill="#FBFCFF"/>
<rect x="1188" y="858" width="222" height="4" transform="rotate(90 1188 858)" fill="#FBFCFF"/>
<rect x="1150" y="858" width="222" height="4" transform="rotate(90 1150 858)" fill="#FBFCFF"/>
<rect x="1169" y="858" width="222" height="4" transform="rotate(90 1169 858)" fill="#FBFCFF"/>
<rect x="1131" y="858" width="222" height="4" transform="rotate(90 1131 858)" fill="#FBFCFF"/>
<rect x="1112" y="858" width="222" height="4" transform="rotate(90 1112 858)" fill="#FBFCFF"/>
<rect x="1305" y="331" width="160" height="4" transform="rotate(90 1305 331)" fill="#FBFCFF"/>
<rect x="1286" y="331" width="160" height="4" transform="rotate(90 1286 331)" fill="#FBFCFF"/>
<rect x="1248" y="331" width="160" height="4" transform="rotate(90 1248 331)" fill="#FBFCFF"/>
<rect x="1267" y="331" width="160" height="4" transform="rotate(90 1267 331)" fill="#FBFCFF"/>
<rect x="1229" y="331" width="160" height="4" transform="rotate(90 1229 331)" fill="#FBFCFF"/>
<rect x="1210" y="331" width="160" height="4" transform="rotate(90 1210 331)" fill="#FBFCFF"/>
<rect x="1404" y="331" width="428" height="4" transform="rotate(90 1404 331)" fill="#FBFCFF"/>
<rect x="1385" y="331" width="428" height="4" transform="rotate(90 1385 331)" fill="#FBFCFF"/>
<rect x="1347" y="331" width="428" height="4" transform="rotate(90 1347 331)" fill="#FBFCFF"/>
<rect x="1366" y="331" width="428" height="4" transform="rotate(90 1366 331)" fill="#FBFCFF"/>
<rect x="1328" y="331" width="428" height="4" transform="rotate(90 1328 331)" fill="#FBFCFF"/>
<rect x="1309" y="331" width="428" height="4" transform="rotate(90 1309 331)" fill="#FBFCFF"/>
<rect x="99" y="349" width="138" height="4" transform="rotate(90 99 349)" fill="#FBFCFF"/>
<rect x="80" y="349" width="138" height="4" transform="rotate(90 80 349)" fill="#FBFCFF"/>
<rect x="42" y="349" width="138" height="4" transform="rotate(90 42 349)" fill="#FBFCFF"/>
<rect x="61" y="349" width="138" height="4" transform="rotate(90 61 349)" fill="#FBFCFF"/>
<rect x="23" y="349" width="138" height="4" transform="rotate(90 23 349)" fill="#FBFCFF"/>
<rect x="4" y="349" width="138" height="4" transform="rotate(90 4 349)" fill="#FBFCFF"/>
<path d="M1305 490.5C1305 503.567 1302.43 516.505 1297.43 528.577C1292.43 540.649 1285.1 551.618 1275.86 560.857C1266.62 570.097 1255.65 577.426 1243.58 582.426C1231.51 587.426 1218.57 590 1205.5 590V586.004C1218.04 586.004 1230.46 583.534 1242.05 578.734C1253.63 573.935 1264.16 566.9 1273.03 558.032C1281.9 549.163 1288.93 538.635 1293.73 527.048C1298.53 515.461 1301 503.042 1301 490.5H1305Z" fill="#FBFCFF"/>
<path d="M1286 491C1286 501.506 1283.93 511.909 1279.91 521.615C1275.89 531.321 1270 540.14 1262.57 547.569C1255.14 554.997 1246.32 560.89 1236.61 564.91C1226.91 568.931 1216.51 571 1206 571V567.013C1215.98 567.013 1225.87 565.047 1235.09 561.227C1244.31 557.407 1252.69 551.808 1259.75 544.749C1266.81 537.691 1272.41 529.311 1276.23 520.089C1280.05 510.867 1282.01 500.982 1282.01 491H1286Z" fill="#FBFCFF"/>
<path d="M1267 491C1267 499.011 1265.42 506.943 1262.36 514.344C1259.29 521.745 1254.8 528.469 1249.13 534.134C1243.47 539.798 1236.74 544.291 1229.34 547.357C1221.94 550.422 1214.01 552 1206 552V547.994C1213.48 547.994 1220.9 546.52 1227.81 543.656C1234.73 540.791 1241.01 536.593 1246.3 531.301C1251.59 526.008 1255.79 519.726 1258.66 512.811C1261.52 505.896 1262.99 498.485 1262.99 491H1267Z" fill="#FBFCFF"/>
<path d="M1248 491C1248 496.516 1246.91 501.977 1244.8 507.073C1242.69 512.168 1239.6 516.798 1235.7 520.698C1231.8 524.599 1227.17 527.692 1222.07 529.803C1216.98 531.914 1211.52 533 1206 533V528.998C1210.99 528.998 1215.93 528.016 1220.54 526.106C1225.15 524.196 1229.34 521.397 1232.87 517.869C1236.4 514.34 1239.2 510.152 1241.11 505.541C1243.02 500.931 1244 495.99 1244 491H1248Z" fill="#FBFCFF"/>
<path d="M1229 490.5C1229 493.586 1228.39 496.642 1227.21 499.493C1226.03 502.344 1224.3 504.935 1222.12 507.117C1219.93 509.299 1217.34 511.03 1214.49 512.211C1211.64 513.392 1208.59 514 1205.5 514L1205.5 510.013C1208.06 510.013 1210.6 509.508 1212.97 508.528C1215.33 507.547 1217.49 506.11 1219.3 504.298C1221.11 502.486 1222.55 500.335 1223.53 497.967C1224.51 495.6 1225.01 493.063 1225.01 490.5H1229Z" fill="#FBFCFF"/>
<path d="M1210 491C1210 491.525 1209.9 492.045 1209.7 492.531C1209.49 493.016 1209.2 493.457 1208.83 493.828C1208.46 494.2 1208.02 494.494 1207.53 494.696C1207.05 494.897 1206.53 495 1206 495L1206 491H1210Z" fill="#FBFCFF"/>
<path d="M956 249.5C956 262.567 953.426 275.505 948.426 287.577C943.426 299.649 936.097 310.618 926.857 319.857C917.618 329.097 906.649 336.426 894.577 341.426C882.505 346.426 869.566 349 856.5 349L856.5 345.004C869.042 345.004 881.461 342.534 893.048 337.734C904.635 332.935 915.163 325.9 924.031 317.032C932.9 308.163 939.935 297.635 944.734 286.048C949.534 274.461 952.004 262.042 952.004 249.5L956 249.5Z" fill="#FBFCFF"/>
<path d="M937 250C937 260.506 934.931 270.909 930.91 280.615C926.89 290.321 920.997 299.14 913.569 306.569C906.14 313.997 897.321 319.89 887.615 323.91C877.909 327.931 867.506 330 857 330L857 326.013C866.982 326.013 876.867 324.047 886.089 320.227C895.311 316.407 903.691 310.808 910.749 303.749C917.808 296.691 923.407 288.311 927.227 279.089C931.047 269.867 933.013 259.982 933.013 250L937 250Z" fill="#FBFCFF"/>
<path d="M918 250C918 258.011 916.422 265.943 913.357 273.344C910.291 280.745 905.798 287.469 900.133 293.134C894.469 298.798 887.745 303.291 880.344 306.357C872.943 309.422 865.011 311 857 311L857 306.994C864.485 306.994 871.896 305.52 878.811 302.656C885.725 299.791 892.008 295.593 897.301 290.301C902.593 285.009 906.791 278.726 909.656 271.811C912.52 264.896 913.994 257.485 913.994 250L918 250Z" fill="#FBFCFF"/>
<path d="M899 250C899 255.516 897.914 260.977 895.803 266.073C893.692 271.168 890.599 275.798 886.698 279.698C882.798 283.599 878.168 286.692 873.073 288.803C867.977 290.914 862.516 292 857 292L857 287.998C861.99 287.998 866.931 287.016 871.541 285.106C876.152 283.196 880.34 280.397 883.869 276.869C887.397 273.34 890.196 269.152 892.106 264.541C894.016 259.931 894.998 254.99 894.998 250L899 250Z" fill="#FBFCFF"/>
<path d="M880 249.5C880 252.586 879.392 255.642 878.211 258.493C877.03 261.344 875.299 263.935 873.117 266.117C870.935 268.299 868.344 270.03 865.493 271.211C862.642 272.392 859.586 273 856.5 273L856.5 269.013C859.063 269.013 861.6 268.508 863.967 267.528C866.335 266.547 868.486 265.11 870.298 263.298C872.11 261.486 873.547 259.335 874.528 256.967C875.508 254.6 876.013 252.063 876.013 249.5L880 249.5Z" fill="#FBFCFF"/>
<path d="M861 250C861 250.525 860.897 251.045 860.696 251.531C860.494 252.016 860.2 252.457 859.828 252.828C859.457 253.2 859.016 253.495 858.531 253.696C858.045 253.897 857.525 254 857 254L857 250L861 250Z" fill="#FBFCFF"/>
<path d="M1404 758.5C1404 771.567 1401.43 784.505 1396.43 796.577C1391.43 808.649 1384.1 819.618 1374.86 828.857C1365.62 838.097 1354.65 845.426 1342.58 850.426C1330.51 855.426 1317.57 858 1304.5 858V854.004C1317.04 854.004 1329.46 851.534 1341.05 846.734C1352.63 841.935 1363.16 834.9 1372.03 826.032C1380.9 817.163 1387.93 806.635 1392.73 795.048C1397.53 783.461 1400 771.042 1400 758.5H1404Z" fill="#FBFCFF"/>
<path d="M1385 759C1385 769.506 1382.93 779.909 1378.91 789.615C1374.89 799.321 1369 808.14 1361.57 815.569C1354.14 822.997 1345.32 828.89 1335.61 832.91C1325.91 836.931 1315.51 839 1305 839V835.013C1314.98 835.013 1324.87 833.047 1334.09 829.227C1343.31 825.407 1351.69 819.808 1358.75 812.749C1365.81 805.691 1371.41 797.311 1375.23 788.089C1379.05 778.867 1381.01 768.982 1381.01 759H1385Z" fill="#FBFCFF"/>
<path d="M1366 759C1366 767.011 1364.42 774.943 1361.36 782.344C1358.29 789.745 1353.8 796.469 1348.13 802.134C1342.47 807.798 1335.74 812.291 1328.34 815.357C1320.94 818.422 1313.01 820 1305 820V815.994C1312.48 815.994 1319.9 814.52 1326.81 811.656C1333.73 808.791 1340.01 804.593 1345.3 799.301C1350.59 794.008 1354.79 787.726 1357.66 780.811C1360.52 773.896 1361.99 766.485 1361.99 759H1366Z" fill="#FBFCFF"/>
<path d="M1347 759C1347 764.516 1345.91 769.977 1343.8 775.073C1341.69 780.168 1338.6 784.798 1334.7 788.698C1330.8 792.599 1326.17 795.692 1321.07 797.803C1315.98 799.914 1310.52 801 1305 801V796.998C1309.99 796.998 1314.93 796.016 1319.54 794.106C1324.15 792.196 1328.34 789.397 1331.87 785.869C1335.4 782.34 1338.2 778.152 1340.11 773.541C1342.02 768.931 1343 763.99 1343 759H1347Z" fill="#FBFCFF"/>
<path d="M1328 758.5C1328 761.586 1327.39 764.642 1326.21 767.493C1325.03 770.344 1323.3 772.935 1321.12 775.117C1318.93 777.299 1316.34 779.03 1313.49 780.211C1310.64 781.392 1307.59 782 1304.5 782L1304.5 778.013C1307.06 778.013 1309.6 777.508 1311.97 776.528C1314.33 775.547 1316.49 774.11 1318.3 772.298C1320.11 770.486 1321.55 768.335 1322.53 765.967C1323.51 763.6 1324.01 761.063 1324.01 758.5H1328Z" fill="#FBFCFF"/>
<path d="M1309 759C1309 759.525 1308.9 760.045 1308.7 760.531C1308.49 761.016 1308.2 761.457 1307.83 761.828C1307.46 762.2 1307.02 762.494 1306.53 762.696C1306.05 762.897 1305.53 763 1305 763L1305 759H1309Z" fill="#FBFCFF"/>
<path d="M1108 858.5C1108 845.433 1110.57 832.495 1115.57 820.423C1120.57 808.351 1127.9 797.382 1137.14 788.143C1146.38 778.903 1157.35 771.574 1169.42 766.574C1181.49 761.574 1194.43 759 1207.5 759L1207.5 762.996C1194.96 762.996 1182.54 765.466 1170.95 770.266C1159.37 775.065 1148.84 782.1 1139.97 790.968C1131.1 799.837 1124.07 810.365 1119.27 821.952C1114.47 833.539 1112 845.958 1112 858.5L1108 858.5Z" fill="#FBFCFF"/>
<path d="M1127 858C1127 847.494 1129.07 837.091 1133.09 827.385C1137.11 817.679 1143 808.86 1150.43 801.431C1157.86 794.003 1166.68 788.11 1176.39 784.09C1186.09 780.069 1196.49 778 1207 778L1207 781.987C1197.02 781.987 1187.13 783.953 1177.91 787.773C1168.69 791.593 1160.31 797.192 1153.25 804.251C1146.19 811.309 1140.59 819.689 1136.77 828.911C1132.95 838.133 1130.99 848.018 1130.99 858L1127 858Z" fill="#FBFCFF"/>
<path d="M1146 858C1146 849.989 1147.58 842.057 1150.64 834.656C1153.71 827.255 1158.2 820.531 1163.87 814.866C1169.53 809.202 1176.26 804.709 1183.66 801.643C1191.06 798.578 1198.99 797 1207 797L1207 801.006C1199.52 801.006 1192.1 802.48 1185.19 805.344C1178.27 808.209 1171.99 812.407 1166.7 817.699C1161.41 822.992 1157.21 829.274 1154.34 836.189C1151.48 843.104 1150.01 850.515 1150.01 858L1146 858Z" fill="#FBFCFF"/>
<path d="M1165 858C1165 852.484 1166.09 847.023 1168.2 841.927C1170.31 836.832 1173.4 832.202 1177.3 828.302C1181.2 824.401 1185.83 821.308 1190.93 819.197C1196.02 817.086 1201.48 816 1207 816L1207 820.002C1202.01 820.002 1197.07 820.984 1192.46 822.894C1187.85 824.804 1183.66 827.603 1180.13 831.131C1176.6 834.66 1173.8 838.848 1171.89 843.459C1169.98 848.069 1169 853.01 1169 858L1165 858Z" fill="#FBFCFF"/>
<path d="M1184 858.5C1184 855.414 1184.61 852.358 1185.79 849.507C1186.97 846.656 1188.7 844.065 1190.88 841.883C1193.07 839.701 1195.66 837.97 1198.51 836.789C1201.36 835.608 1204.41 835 1207.5 835L1207.5 838.987C1204.94 838.987 1202.4 839.492 1200.03 840.472C1197.67 841.453 1195.51 842.89 1193.7 844.702C1191.89 846.514 1190.45 848.665 1189.47 851.033C1188.49 853.4 1187.99 855.937 1187.99 858.5L1184 858.5Z" fill="#FBFCFF"/>
<path d="M1203 858C1203 857.475 1203.1 856.955 1203.3 856.469C1203.51 855.984 1203.8 855.543 1204.17 855.172C1204.54 854.8 1204.98 854.506 1205.47 854.304C1205.95 854.103 1206.47 854 1207 854L1207 858L1203 858Z" fill="#FBFCFF"/>
<rect x="99" y="487" width="80" height="4" fill="#FBFCFF"/>
<rect x="99" y="506" width="80" height="4" fill="#FBFCFF"/>
<rect x="99" y="544" width="80" height="4" fill="#FBFCFF"/>
<rect x="99" y="525" width="80" height="4" fill="#FBFCFF"/>
<rect x="99" y="563" width="80" height="4" fill="#FBFCFF"/>
<rect x="99" y="582" width="80" height="4" fill="#FBFCFF"/>
<path d="M99.5 586C86.4335 586 73.4949 583.426 61.423 578.426C49.3511 573.426 38.3823 566.097 29.1429 556.857C19.9034 547.618 12.5743 536.649 7.57398 524.577C2.57363 512.505 -4.92044e-06 499.567 -4.34928e-06 486.5L3.996 486.5C3.996 499.042 6.46627 511.461 11.2658 523.048C16.0653 534.635 23.1001 545.163 31.9685 554.032C40.8368 562.9 51.3651 569.935 62.9522 574.734C74.5393 579.534 86.9582 582.004 99.5 582.004L99.5 586Z" fill="#FBFCFF"/>
<path d="M99 567C88.4942 567 78.0914 564.931 68.3853 560.91C58.6793 556.89 49.8601 550.997 42.4315 543.569C35.0028 536.14 29.11 527.321 25.0896 517.615C21.0693 507.909 19 497.506 19 487L22.9868 487C22.9868 496.982 24.9529 506.867 28.7729 516.089C32.593 525.311 38.1921 533.691 45.2505 540.749C52.309 547.808 60.6887 553.407 69.911 557.227C79.1333 561.047 89.0178 563.013 99 563.013L99 567Z" fill="#FBFCFF"/>
<path d="M99 548C90.9894 548 83.0572 546.422 75.6563 543.357C68.2554 540.291 61.5309 535.798 55.8665 530.134C50.2021 524.469 45.7089 517.745 42.6433 510.344C39.5778 502.943 38 495.011 38 487L42.006 487C42.006 494.485 43.4802 501.896 46.3444 508.811C49.2086 515.725 53.4067 522.008 58.6991 527.301C63.9915 532.593 70.2745 536.791 77.1893 539.656C84.1042 542.52 91.5154 543.994 99 543.994L99 548Z" fill="#FBFCFF"/>
<path d="M99 529C93.4845 529 88.023 527.914 82.9273 525.803C77.8316 523.692 73.2016 520.599 69.3015 516.698C65.4014 512.798 62.3078 508.168 60.1971 503.073C58.0864 497.977 57 492.516 57 487L61.0016 487C61.0016 491.99 61.9845 496.931 63.8941 501.541C65.8037 506.152 68.6026 510.34 72.1311 513.869C75.6596 517.397 79.8485 520.196 84.4586 522.106C89.0688 524.016 94.01 524.998 99 524.998L99 529Z" fill="#FBFCFF"/>
<path d="M99.5 510C96.4139 510 93.3581 509.392 90.5069 508.211C87.6558 507.03 85.0652 505.299 82.883 503.117C80.7008 500.935 78.9698 498.344 77.7888 495.493C76.6078 492.642 76 489.586 76 486.5L79.9868 486.5C79.9868 489.063 80.4915 491.6 81.4722 493.967C82.4528 496.335 83.8901 498.486 85.7021 500.298C87.5141 502.11 89.6652 503.547 92.0326 504.528C94.4001 505.508 96.9375 506.013 99.5 506.013L99.5 510Z" fill="#FBFCFF"/>
<path d="M99 491C98.4747 491 97.9546 490.897 97.4693 490.696C96.984 490.494 96.543 490.2 96.1716 489.828C95.8001 489.457 95.5055 489.016 95.3045 488.531C95.1035 488.045 95 487.525 95 487L99 487L99 491Z" fill="#FBFCFF"/>
<path d="M1206 331.5C1206 305.111 1216.43 279.803 1235 261.143C1253.56 242.483 1278.74 232 1305 232C1331.26 232 1356.44 242.483 1375 261.143C1393.57 279.803 1404 305.111 1404 331.5L1400.02 331.5C1400.02 306.171 1390.01 281.879 1372.19 263.968C1354.37 246.058 1330.2 235.996 1305 235.996C1279.8 235.996 1255.63 246.058 1237.81 263.968C1219.99 281.879 1209.98 306.171 1209.98 331.5L1206 331.5Z" fill="#FBFCFF"/>
<path d="M1225 331C1225 309.783 1233.43 289.434 1248.43 274.431C1263.43 259.429 1283.78 251 1305 251C1326.22 251 1346.57 259.429 1361.57 274.431C1376.57 289.434 1385 309.783 1385 331L1381.01 331C1381.01 310.84 1373 291.506 1358.75 277.251C1344.49 262.995 1325.16 254.987 1305 254.987C1284.84 254.987 1265.51 262.995 1251.25 277.251C1237 291.506 1228.99 310.84 1228.99 331L1225 331Z" fill="#FBFCFF"/>
<path d="M1244 331C1244 314.822 1250.43 299.306 1261.87 287.866C1273.31 276.427 1288.82 270 1305 270C1321.18 270 1336.69 276.427 1348.13 287.866C1359.57 299.306 1366 314.822 1366 331L1361.99 331C1361.99 315.884 1355.99 301.388 1345.3 290.699C1334.61 280.011 1320.12 274.006 1305 274.006C1289.88 274.006 1275.39 280.011 1264.7 290.699C1254.01 301.388 1248.01 315.884 1248.01 331L1244 331Z" fill="#FBFCFF"/>
<path d="M1263 331C1263 319.861 1267.42 309.178 1275.3 301.302C1283.18 293.425 1293.86 289 1305 289C1316.14 289 1326.82 293.425 1334.7 301.302C1342.58 309.178 1347 319.861 1347 331L1343 331C1343 320.922 1338.99 311.257 1331.87 304.131C1324.74 297.005 1315.08 293.002 1305 293.002C1294.92 293.002 1285.26 297.005 1278.13 304.131C1271.01 311.257 1267 320.922 1267 331L1263 331Z" fill="#FBFCFF"/>
<path d="M1282 331.5C1282 328.414 1282.59 325.358 1283.75 322.507C1284.91 319.656 1286.6 317.065 1288.74 314.883C1290.87 312.701 1293.41 310.97 1296.2 309.789C1298.99 308.608 1301.98 308 1305 308C1308.02 308 1311.01 308.608 1313.8 309.789C1316.59 310.97 1319.13 312.701 1321.26 314.883C1323.4 317.065 1325.09 319.656 1326.25 322.507C1327.41 325.358 1328 328.414 1328 331.5L1324.1 331.5C1324.1 328.937 1323.6 326.4 1322.64 324.033C1321.68 321.665 1320.28 319.514 1318.5 317.702C1316.73 315.89 1314.63 314.453 1312.31 313.472C1309.99 312.492 1307.51 311.987 1305 311.987C1302.49 311.987 1300.01 312.492 1297.69 313.472C1295.37 314.453 1293.27 315.89 1291.5 317.702C1289.72 319.514 1288.32 321.665 1287.36 324.033C1286.4 326.4 1285.9 328.937 1285.9 331.5L1282 331.5Z" fill="#FBFCFF"/>
<path d="M1301 331C1301 329.939 1301.42 328.922 1302.17 328.172C1302.92 327.421 1303.94 327 1305 327C1306.06 327 1307.08 327.421 1307.83 328.172C1308.58 328.922 1309 329.939 1309 331L1305 331L1301 331Z" fill="#FBFCFF"/>
<path d="M8.69857e-06 349.5C9.84088e-06 336.433 2.57365 323.495 7.574 311.423C12.5743 299.351 19.9035 288.382 29.1429 279.143C38.3823 269.903 49.3511 262.574 61.423 257.574C73.4949 252.574 86.4335 250 99.5 250L99.5 253.996C86.9583 253.996 74.5393 256.466 62.9522 261.266C51.3651 266.065 40.8369 273.1 31.9685 281.968C23.1001 290.837 16.0654 301.365 11.2658 312.952C6.4663 324.539 3.99601 336.958 3.99601 349.5L8.69857e-06 349.5Z" fill="#FBFCFF"/>
<path d="M19 349C19 338.494 21.0693 328.091 25.0896 318.385C29.11 308.679 35.0028 299.86 42.4315 292.431C49.8602 285.003 58.6793 279.11 68.3853 275.09C78.0914 271.069 88.4943 269 99 269L99 272.987C89.0178 272.987 79.1334 274.953 69.911 278.773C60.6887 282.593 52.309 288.192 45.2506 295.251C38.1921 302.309 32.593 310.689 28.773 319.911C24.9529 329.133 22.9868 339.018 22.9868 349L19 349Z" fill="#FBFCFF"/>
<path d="M38 349C38 340.989 39.5778 333.057 42.6434 325.656C45.7089 318.255 50.2021 311.531 55.8665 305.866C61.5309 300.202 68.2555 295.709 75.6563 292.643C83.0572 289.578 90.9894 288 99 288L99 292.006C91.5155 292.006 84.1042 293.48 77.1893 296.344C70.2745 299.209 63.9915 303.407 58.6991 308.699C53.4068 313.992 49.2086 320.274 46.3444 327.189C43.4802 334.104 42.006 341.515 42.006 349L38 349Z" fill="#FBFCFF"/>
<path d="M57 349C57 343.484 58.0864 338.023 60.1971 332.927C62.3078 327.832 65.4015 323.202 69.3015 319.302C73.2016 315.401 77.8316 312.308 82.9273 310.197C88.023 308.086 93.4845 307 99 307L99 311.002C94.01 311.002 89.0688 311.984 84.4587 313.894C79.8485 315.804 75.6596 318.603 72.1311 322.131C68.6026 325.66 65.8037 329.848 63.8941 334.459C61.9845 339.069 61.0016 344.01 61.0016 349L57 349Z" fill="#FBFCFF"/>
<path d="M76 349.5C76 346.414 76.6078 343.358 77.7888 340.507C78.9698 337.656 80.7008 335.065 82.883 332.883C85.0652 330.701 87.6558 328.97 90.5069 327.789C93.3581 326.608 96.4139 326 99.5 326L99.5 329.987C96.9375 329.987 94.4001 330.492 92.0326 331.472C89.6652 332.453 87.5141 333.89 85.7021 335.702C83.8901 337.514 82.4528 339.665 81.4722 342.033C80.4915 344.4 79.9868 346.937 79.9868 349.5L76 349.5Z" fill="#FBFCFF"/>
<path d="M95 349C95 348.475 95.1035 347.955 95.3045 347.469C95.5055 346.984 95.8001 346.543 96.1716 346.172C96.543 345.8 96.984 345.506 97.4693 345.304C97.9546 345.103 98.4747 345 99 345L99 349L95 349Z" fill="#FBFCFF"/>
<rect x="1207" y="759" width="98" height="4" fill="#FBFCFF"/>
<rect x="1207" y="778" width="98" height="4" fill="#FBFCFF"/>
<rect x="1207" y="816" width="98" height="4" fill="#FBFCFF"/>
<rect x="1207" y="797" width="98" height="4" fill="#FBFCFF"/>
<rect x="1207" y="835" width="98" height="4" fill="#FBFCFF"/>
<rect x="1207" y="854" width="98" height="4" fill="#FBFCFF"/>
</svg>
